{"glyphs":{"0":{"ha":806,"x_min":57,"x_max":749,"o":"m 57 479 q 57 728 57 479 q 403 978 57 978 q 749 479 749 978 q 403 -19 749 -19 q 57 479 57 -19 m 190 479 q 190 277 190 479 q 403 75 190 75 q 615 479 615 75 q 403 883 615 883 q 190 479 190 883 z "},"1":{"ha":806,"x_min":181,"x_max":564,"o":"m 564 958 l 564 0 l 444 0 l 444 832 l 181 675 l 181 801 l 383 928 q 488 958 432 958 l 564 958 z "},"2":{"ha":806,"x_min":83,"x_max":731,"o":"m 257 97 l 726 97 l 726 0 l 83 0 l 83 68 l 431 422 q 560 576 522 517 q 597 700 597 635 q 552 831 597 779 q 425 883 507 883 q 228 672 250 883 l 226 658 l 107 658 l 108 672 q 208 899 122 821 q 439 978 294 978 q 655 903 579 978 q 731 714 731 828 q 679 542 731 621 q 497 335 628 464 l 257 97 z "},"3":{"ha":806,"x_min":63,"x_max":742,"o":"m 550 510 q 691 422 640 485 q 742 267 742 358 q 640 59 742 138 q 394 -19 539 -19 q 64 269 93 -19 l 63 283 l 182 283 l 183 269 q 253 124 193 172 q 406 75 314 75 q 552 124 496 75 q 608 260 608 174 q 381 436 608 436 l 357 436 l 357 533 l 381 533 q 528 583 469 533 q 586 721 586 633 q 540 838 586 793 q 417 883 493 883 q 284 835 338 883 q 221 696 231 788 l 219 682 l 100 682 l 101 696 q 201 903 115 828 q 432 978 288 978 q 642 911 564 978 q 719 735 719 844 q 673 593 719 654 q 550 510 626 532 z "},"4":{"ha":806,"x_min":46,"x_max":761,"o":"m 761 242 l 640 242 l 640 0 l 521 0 l 521 242 l 46 242 l 46 301 l 521 958 l 640 958 l 640 339 l 761 339 l 761 242 m 521 339 l 521 799 q 442 676 481 729 l 197 339 l 521 339 z "},"5":{"ha":806,"x_min":79,"x_max":746,"o":"m 426 632 q 663 543 581 632 q 746 311 746 454 q 645 70 746 160 q 404 -19 544 -19 q 81 254 108 -19 l 79 268 l 199 268 l 201 254 q 403 75 238 75 q 556 135 499 75 q 613 303 613 196 q 558 474 613 411 q 408 538 504 538 q 208 401 274 538 l 94 401 l 161 958 l 706 958 l 706 861 l 258 861 l 215 528 l 275 592 q 426 632 342 632 z "},"6":{"ha":806,"x_min":60,"x_max":738,"o":"m 419 647 q 652 558 567 647 q 738 322 738 468 q 642 76 738 171 q 399 -19 546 -19 q 60 433 60 -19 q 165 842 60 707 q 431 978 269 978 q 635 908 554 978 q 726 719 715 838 l 728 706 l 600 706 l 597 719 q 421 883 564 883 q 190 500 204 883 l 244 586 q 419 647 318 647 m 399 75 q 547 140 489 75 q 604 308 604 204 q 553 485 604 417 q 399 553 503 553 q 256 490 313 553 q 199 311 199 426 q 254 142 199 210 q 399 75 310 75 z "},"7":{"ha":806,"x_min":69,"x_max":747,"o":"m 747 958 l 747 903 l 269 0 l 142 0 l 601 861 l 69 861 l 69 958 l 747 958 z "},"8":{"ha":806,"x_min":61,"x_max":744,"o":"m 561 507 q 692 416 640 481 q 744 268 744 351 q 644 51 744 122 q 403 -21 544 -21 q 157 50 253 -21 q 61 268 61 121 q 116 416 61 351 q 251 506 171 481 q 144 588 185 532 q 103 719 103 643 q 187 908 103 838 q 411 978 271 978 q 635 908 551 978 q 719 719 719 838 q 676 588 719 643 q 561 507 632 532 m 544 835 q 520 859 544 835 q 411 883 497 883 q 278 835 325 883 q 232 715 232 788 q 278 592 232 639 q 410 544 324 544 q 543 592 496 544 q 590 715 590 639 q 544 835 590 788 m 406 74 q 559 125 507 74 q 611 263 611 176 q 560 397 611 343 q 404 450 508 450 q 247 397 299 450 q 194 263 194 343 q 249 126 194 178 q 406 74 303 74 z "},"9":{"ha":806,"x_min":68,"x_max":746,"o":"m 407 978 q 746 525 746 978 q 641 116 746 251 q 375 -19 536 -19 q 171 51 251 -19 q 79 239 90 121 l 78 253 l 206 253 l 208 239 q 385 75 242 75 q 615 458 601 75 l 561 372 q 386 311 488 311 q 153 401 239 311 q 68 636 68 490 q 164 883 68 788 q 407 978 260 978 m 407 406 q 550 469 493 406 q 607 647 607 532 q 551 816 607 749 q 407 883 496 883 q 259 819 317 883 q 201 650 201 754 q 252 474 201 542 q 407 406 303 406 z "}," ":{"ha":300,"x_min":0,"x_max":0,"o":""},"!":{"ha":336,"x_min":79,"x_max":257,"o":"m 222 250 l 114 250 l 97 958 l 239 958 l 222 250 m 104 133 q 117 146 104 133 q 168 158 129 158 q 232 133 207 158 q 257 69 257 108 q 232 6 257 31 q 168 -19 207 -19 q 104 6 129 -19 q 79 69 79 31 q 104 133 79 108 z "},"\"":{"ha":471,"x_min":119,"x_max":439,"o":"m 231 674 l 133 674 l 119 1021 l 244 1021 l 231 674 m 425 674 l 328 674 l 314 1021 l 439 1021 l 425 674 z "},"#":{"ha":806,"x_min":97,"x_max":708,"o":"m 567 576 l 526 382 l 667 382 l 667 304 l 510 304 l 444 0 l 364 0 l 429 304 l 303 304 l 238 0 l 157 0 l 222 304 l 97 304 l 97 382 l 239 382 l 279 576 l 139 576 l 139 654 l 296 654 l 361 958 l 442 958 l 376 654 l 503 654 l 568 958 l 649 958 l 583 654 l 708 654 l 708 576 l 567 576 m 488 576 l 361 576 l 319 382 l 446 382 l 488 576 z "},"$":{"ha":806,"x_min":74,"x_max":731,"o":"m 731 251 q 652 67 731 139 q 451 -17 574 -4 l 451 -125 l 371 -125 l 371 -18 q 158 64 238 -10 q 74 258 79 138 l 201 258 q 254 136 211 183 q 371 78 297 89 l 371 433 q 174 533 240 469 q 108 710 108 596 q 181 893 108 824 q 371 975 253 963 l 371 1083 l 451 1083 l 451 976 q 638 892 569 967 q 721 707 707 818 l 593 707 q 451 881 578 861 l 451 550 q 667 431 603 501 q 731 251 731 361 m 236 728 q 267 622 236 660 q 371 563 299 585 l 371 881 q 272 831 307 869 q 236 728 236 792 m 451 418 l 451 76 q 563 125 522 85 q 603 238 603 165 q 451 418 603 368 z "},"%":{"ha":1028,"x_min":57,"x_max":971,"o":"m 113 913 q 140 942 113 913 q 263 972 168 972 q 413 913 357 972 q 468 751 468 853 q 413 590 468 650 q 263 531 357 531 q 113 590 168 531 q 57 751 57 650 q 113 913 57 853 m 264 0 l 143 0 l 765 958 l 886 958 l 264 0 m 327 853 q 315 871 327 853 q 263 889 303 889 q 198 853 222 889 q 174 751 174 818 q 198 650 174 686 q 263 614 222 614 q 327 650 303 614 q 351 751 351 686 q 327 853 351 818 m 615 363 q 643 392 615 363 q 765 422 671 422 q 915 363 860 422 q 971 201 971 303 q 915 40 971 100 q 765 -19 860 -19 q 615 40 671 -19 q 560 201 560 100 q 615 363 560 303 m 830 303 q 818 321 830 303 q 765 339 806 339 q 701 303 725 339 q 676 201 676 268 q 701 100 676 136 q 765 64 725 64 q 830 100 806 64 q 854 201 854 136 q 830 303 854 268 z "},"&":{"ha":908,"x_min":89,"x_max":864,"o":"m 864 535 l 864 438 l 731 438 l 731 10 q 468 -19 603 -19 q 188 39 286 -19 q 89 240 89 97 q 149 399 89 329 q 308 489 208 468 q 177 565 226 508 q 128 703 128 621 q 222 901 128 825 q 467 978 317 978 q 633 964 558 978 l 633 868 q 463 883 556 883 q 315 837 368 883 q 261 710 261 790 q 308 579 261 618 q 442 536 356 540 q 528 535 467 535 l 611 535 l 611 690 l 731 690 l 731 535 l 864 535 m 222 258 q 281 117 222 160 q 471 75 339 75 q 611 88 550 75 l 611 438 l 528 438 q 443 435 471 438 q 276 377 329 425 q 222 258 222 329 z "},"'":{"ha":244,"x_min":60,"x_max":185,"o":"m 171 674 l 74 674 l 60 1021 l 185 1021 l 171 674 z "},"(":{"ha":438,"x_min":139,"x_max":388,"o":"m 307 1083 l 388 1083 q 225 486 225 808 q 388 -111 225 164 l 307 -111 q 183 165 228 7 q 139 486 139 322 q 183 808 139 650 q 307 1083 228 965 z "},")":{"ha":438,"x_min":42,"x_max":290,"o":"m 42 1083 l 122 1083 q 246 808 201 965 q 290 486 290 650 q 246 165 290 322 q 122 -111 201 7 l 42 -111 q 204 486 204 164 q 42 1083 204 808 z "},"*":{"ha":778,"x_min":118,"x_max":660,"o":"m 418 411 l 633 496 l 660 414 l 439 357 l 596 165 l 526 114 l 389 326 l 251 114 l 182 165 l 339 357 l 118 414 l 144 496 l 360 411 l 346 660 l 432 660 l 418 411 z "},"+":{"ha":806,"x_min":111,"x_max":694,"o":"m 694 399 l 443 399 l 443 118 l 363 118 l 363 399 l 111 399 l 111 476 l 363 476 l 363 763 l 443 763 l 443 476 l 694 476 l 694 399 z "},",":{"ha":306,"x_min":-43,"x_max":194,"o":"m 194 125 l 69 -167 l -43 -167 l 65 139 l 194 139 l 194 125 z "},"-":{"ha":381,"x_min":44,"x_max":336,"o":"m 336 354 l 44 354 l 44 432 l 336 432 l 336 354 z "},".":{"ha":306,"x_min":51,"x_max":229,"o":"m 76 133 q 89 146 76 133 q 140 158 101 158 q 204 133 179 158 q 229 69 229 108 q 204 6 229 31 q 140 -19 179 -19 q 76 6 101 -19 q 51 69 51 31 q 76 133 51 108 z "},"/":{"ha":421,"x_min":-7,"x_max":428,"o":"m 79 -42 l -7 -42 l 342 1000 l 428 1000 l 79 -42 z "},":":{"ha":306,"x_min":51,"x_max":229,"o":"m 76 731 q 89 743 76 731 q 140 756 101 756 q 204 731 179 756 q 229 667 229 706 q 204 603 229 628 q 140 578 179 578 q 76 603 101 578 q 51 667 51 628 q 76 731 51 706 m 76 133 q 89 146 76 133 q 140 158 101 158 q 204 133 179 158 q 229 69 229 108 q 204 6 229 31 q 140 -19 179 -19 q 76 6 101 -19 q 51 69 51 31 q 76 133 51 108 z "},";":{"ha":306,"x_min":-43,"x_max":229,"o":"m 76 731 q 89 743 76 731 q 140 756 101 756 q 204 731 179 756 q 229 667 229 706 q 204 603 229 628 q 140 578 179 578 q 76 603 101 578 q 51 667 51 628 q 76 731 51 706 m 196 136 l 71 -167 l -43 -167 l 65 153 l 196 153 l 196 136 z "},"<":{"ha":806,"x_min":143,"x_max":700,"o":"m 700 600 l 225 369 l 700 139 l 700 42 l 143 321 l 143 415 l 700 694 l 700 600 z "},"=":{"ha":806,"x_min":111,"x_max":694,"o":"m 694 538 l 111 538 l 111 615 l 694 615 l 694 538 m 694 260 l 111 260 l 111 338 l 694 338 l 694 260 z "},">":{"ha":806,"x_min":94,"x_max":651,"o":"m 651 415 l 651 321 l 94 42 l 94 136 l 569 367 l 94 597 l 94 694 l 651 415 z "},"?":{"ha":693,"x_min":49,"x_max":650,"o":"m 361 978 q 574 906 497 978 q 650 724 650 835 q 504 440 650 586 q 419 340 442 378 q 394 250 397 301 l 275 250 q 305 359 282 313 q 386 472 328 406 q 489 610 461 558 q 517 724 517 663 q 474 840 517 796 q 357 883 431 883 q 228 833 278 883 q 174 686 179 782 l 49 686 q 138 899 53 819 q 361 978 224 978 m 271 133 q 283 146 271 133 q 335 158 296 158 q 399 133 374 158 q 424 69 424 108 q 399 6 424 31 q 335 -19 374 -19 q 271 6 296 -19 q 246 69 246 31 q 271 133 246 108 z "},"@":{"ha":1183,"x_min":75,"x_max":1097,"o":"m 881 646 l 793 279 q 788 235 788 256 q 840 185 788 185 q 960 256 910 185 q 1011 457 1011 326 q 907 741 1011 640 q 647 842 803 842 q 472 808 558 842 q 317 712 386 774 q 204 552 247 650 q 161 339 161 454 q 272 41 161 146 q 554 -64 383 -64 q 736 -35 643 -64 q 903 47 829 -7 l 936 -21 q 550 -144 754 -144 q 213 -19 351 -144 q 75 338 75 107 q 125 583 75 471 q 257 769 175 696 q 441 882 339 842 q 651 922 543 922 q 973 794 849 922 q 1097 460 1097 667 q 1011 194 1097 285 q 813 104 925 104 q 674 204 689 104 l 644 147 q 506 93 581 93 q 368 147 426 93 q 310 317 310 200 q 395 565 310 458 q 610 671 481 671 q 732 628 693 671 l 744 561 l 768 646 l 881 646 m 692 349 l 704 403 q 699 538 725 496 q 618 579 674 579 q 489 503 538 579 q 440 325 440 426 q 535 185 440 185 q 633 233 589 185 q 692 349 676 282 z "},"A":{"ha":888,"x_min":40,"x_max":876,"o":"m 633 339 l 281 339 l 168 0 l 40 0 l 385 958 l 546 958 l 876 0 l 747 0 l 633 339 m 314 436 l 601 436 l 463 864 l 314 436 z "},"B":{"ha":871,"x_min":139,"x_max":817,"o":"m 619 510 q 767 433 718 488 q 817 282 817 378 q 746 92 817 160 q 569 7 675 24 q 447 0 522 0 l 139 0 l 139 958 l 421 958 q 546 953 500 958 q 782 719 782 921 q 619 510 782 565 m 258 861 l 258 546 l 443 546 q 519 551 482 546 q 654 710 654 572 q 507 858 654 842 q 431 861 482 861 l 258 861 m 532 100 q 646 150 603 107 q 689 269 689 193 q 533 443 689 422 q 457 449 490 449 l 258 449 l 258 97 l 465 97 q 532 100 496 97 z "},"C":{"ha":971,"x_min":65,"x_max":910,"o":"m 518 978 q 794 889 694 978 q 908 653 893 800 l 910 639 l 790 639 l 788 653 q 515 883 740 883 q 285 770 371 883 q 199 481 199 657 q 283 188 199 301 q 507 75 367 75 q 779 306 732 75 l 782 319 l 901 319 l 900 306 q 783 73 886 165 q 500 -19 679 -19 q 181 119 296 -19 q 65 475 65 258 q 190 837 65 696 q 518 978 315 978 z "},"D":{"ha":985,"x_min":139,"x_max":932,"o":"m 553 953 q 829 814 726 931 q 932 490 932 697 q 825 156 932 285 q 546 6 718 26 q 424 0 497 0 l 139 0 l 139 958 l 431 958 q 553 953 504 958 m 533 104 q 730 224 658 125 q 801 490 801 324 q 733 741 801 647 q 540 854 664 835 q 424 861 503 861 l 258 861 l 258 97 l 417 97 q 533 104 494 97 z "},"E":{"ha":815,"x_min":139,"x_max":776,"o":"m 776 97 l 776 0 l 139 0 l 139 958 l 763 958 l 763 861 l 258 861 l 258 528 l 721 528 l 721 431 l 258 431 l 258 97 l 776 97 z "},"F":{"ha":788,"x_min":139,"x_max":763,"o":"m 258 861 l 258 528 l 707 528 l 707 431 l 258 431 l 258 0 l 139 0 l 139 958 l 763 958 l 763 861 l 258 861 z "},"G":{"ha":986,"x_min":65,"x_max":910,"o":"m 554 463 l 897 463 l 897 0 l 792 0 l 792 167 l 749 78 q 500 -19 663 -19 q 181 119 296 -19 q 65 475 65 258 q 190 837 65 696 q 518 978 315 978 q 794 889 694 978 q 908 653 893 800 l 910 639 l 790 639 l 788 653 q 515 883 740 883 q 285 770 371 883 q 199 481 199 657 q 283 188 199 301 q 507 75 367 75 q 701 156 624 75 q 778 365 778 238 l 554 365 l 554 463 z "},"H":{"ha":1014,"x_min":139,"x_max":906,"o":"m 906 958 l 906 0 l 786 0 l 786 419 l 258 419 l 258 0 l 139 0 l 139 958 l 258 958 l 258 519 l 786 519 l 786 958 l 906 958 z "},"I":{"ha":367,"x_min":139,"x_max":258,"o":"m 258 0 l 139 0 l 139 958 l 258 958 l 258 0 z "},"J":{"ha":756,"x_min":76,"x_max":678,"o":"m 678 958 l 678 367 q 675 251 678 299 q 590 53 668 125 q 365 -19 513 -19 q 156 58 232 -19 q 78 269 81 135 l 76 326 l 196 326 l 199 269 q 382 75 208 75 q 557 258 543 75 q 558 371 558 286 l 558 958 l 678 958 z "},"K":{"ha":846,"x_min":139,"x_max":872,"o":"m 438 490 l 847 0 l 679 0 l 350 410 l 258 311 l 258 0 l 139 0 l 139 958 l 258 958 l 258 449 l 732 958 l 872 958 l 438 490 z "},"L":{"ha":799,"x_min":139,"x_max":776,"o":"m 776 97 l 776 0 l 139 0 l 139 958 l 258 958 l 258 97 l 776 97 z "},"M":{"ha":1203,"x_min":139,"x_max":1094,"o":"m 1094 958 l 1094 0 l 975 0 l 975 493 q 978 850 975 746 q 861 494 929 692 l 692 0 l 542 0 l 369 497 q 256 847 293 719 q 258 493 258 743 l 258 0 l 139 0 l 139 958 l 336 958 l 619 101 l 901 958 l 1094 958 z "},"N":{"ha":997,"x_min":139,"x_max":889,"o":"m 889 0 l 706 0 l 254 842 q 258 479 258 672 l 258 0 l 139 0 l 139 958 l 322 958 l 774 117 q 769 479 769 285 l 769 958 l 886 958 l 889 0 z "},"O":{"ha":1024,"x_min":65,"x_max":971,"o":"m 185 841 q 244 909 185 841 q 518 978 304 978 q 851 841 732 978 q 971 479 971 704 q 851 118 971 256 q 518 -19 732 -19 q 185 118 304 -19 q 65 479 65 256 q 185 841 65 704 m 283 183 q 326 129 283 183 q 518 75 368 75 q 753 183 668 75 q 838 479 838 292 q 753 776 838 668 q 518 883 668 883 q 283 776 368 883 q 199 479 199 668 q 283 183 199 292 z "},"P":{"ha":831,"x_min":139,"x_max":810,"o":"m 561 953 q 744 866 678 938 q 810 675 810 794 q 740 484 810 557 q 561 397 669 411 q 436 392 518 392 l 258 392 l 258 0 l 139 0 l 139 958 l 436 958 q 561 953 518 958 m 554 499 q 682 675 682 528 q 554 851 682 822 q 447 858 521 858 l 258 858 l 258 492 l 447 492 q 554 499 521 492 z "},"Q":{"ha":1018,"x_min":65,"x_max":974,"o":"m 796 100 q 974 10 881 88 l 906 -72 q 718 3 794 3 q 617 -10 675 3 q 518 -19 574 -19 q 185 118 304 -19 q 65 479 65 256 q 185 841 65 704 q 518 978 304 978 q 851 841 732 978 q 971 479 971 704 q 796 100 971 228 m 199 479 q 283 183 199 292 q 518 75 368 75 q 753 183 668 75 q 838 479 838 292 q 753 776 838 668 q 518 883 668 883 q 283 776 368 883 q 199 479 199 668 z "},"R":{"ha":860,"x_min":139,"x_max":833,"o":"m 769 251 q 833 0 786 63 l 701 0 q 650 240 667 79 q 507 411 632 401 q 439 413 485 413 l 258 413 l 258 0 l 139 0 l 139 958 l 453 958 q 578 953 535 958 q 753 876 689 939 q 817 697 817 813 q 768 551 817 608 q 646 471 719 494 q 769 251 754 421 m 258 510 l 442 510 q 535 513 508 510 q 647 564 604 519 q 689 686 689 608 q 549 856 689 833 q 453 861 514 861 l 258 861 l 258 510 z "},"S":{"ha":813,"x_min":72,"x_max":767,"o":"m 436 978 q 661 900 579 978 q 757 693 743 822 l 629 693 q 569 834 621 785 q 426 883 517 883 q 295 846 346 883 q 244 736 244 808 q 291 619 244 660 q 450 554 338 579 q 690 447 613 517 q 767 257 767 376 q 673 57 767 133 q 438 -19 579 -19 q 183 57 279 -19 q 72 272 88 133 l 200 272 q 283 126 221 178 q 440 75 346 75 q 582 118 525 75 q 639 235 639 161 q 585 367 639 321 q 404 443 532 414 q 191 536 265 475 q 117 708 117 597 q 208 903 117 829 q 436 978 300 978 z "},"T":{"ha":850,"x_min":47,"x_max":850,"o":"m 850 861 l 508 861 l 508 0 l 389 0 l 389 861 l 47 861 l 47 958 l 850 958 l 850 861 z "},"U":{"ha":947,"x_min":131,"x_max":850,"o":"m 850 958 l 850 354 q 847 268 850 296 q 747 60 836 140 q 490 -19 657 -19 q 234 60 324 -19 q 133 268 144 140 q 131 354 131 296 l 131 958 l 250 958 l 250 365 q 253 281 250 306 q 322 131 261 186 q 490 75 383 75 q 658 131 597 75 q 728 281 719 186 q 731 365 731 306 l 731 958 l 850 958 z "},"V":{"ha":864,"x_min":44,"x_max":881,"o":"m 536 0 l 375 0 l 44 958 l 174 958 l 458 90 l 753 958 l 881 958 l 536 0 z "},"W":{"ha":1322,"x_min":36,"x_max":1313,"o":"m 1313 958 l 1046 0 l 889 0 l 672 826 l 447 0 l 289 0 l 36 958 l 172 958 l 374 107 l 596 944 l 757 944 l 974 106 l 1186 958 l 1313 958 z "},"X":{"ha":868,"x_min":35,"x_max":865,"o":"m 725 0 l 444 406 l 172 0 l 35 0 l 376 483 l 60 958 l 196 958 l 450 567 l 714 958 l 851 958 l 518 488 l 865 0 l 725 0 z "},"Y":{"ha":807,"x_min":26,"x_max":824,"o":"m 485 378 l 485 0 l 365 0 l 365 378 l 26 958 l 164 958 l 431 493 l 689 958 l 824 958 l 485 378 z "},"Z":{"ha":821,"x_min":64,"x_max":790,"o":"m 790 97 l 790 0 l 64 0 l 64 92 l 643 861 l 103 861 l 103 958 l 782 958 l 782 863 l 206 97 l 790 97 z "},"[":{"ha":426,"x_min":136,"x_max":363,"o":"m 363 1083 l 363 1006 l 217 1006 l 217 -33 l 363 -33 l 363 -111 l 136 -111 l 136 1083 l 363 1083 z "},"\\":{"ha":421,"x_min":-7,"x_max":428,"o":"m 428 -42 l 342 -42 l -7 1000 l 79 1000 l 428 -42 z "},"]":{"ha":410,"x_min":47,"x_max":274,"o":"m 274 -111 l 47 -111 l 47 -33 l 193 -33 l 193 1006 l 47 1006 l 47 1083 l 274 1083 l 274 -111 z "},"^":{"ha":806,"x_min":111,"x_max":694,"o":"m 600 299 l 404 778 l 208 299 l 111 299 l 356 856 l 450 856 l 694 299 l 600 299 z "},"_":{"ha":694,"x_min":69,"x_max":625,"o":"m 625 -119 l 69 -119 l 69 -42 l 625 -42 l 625 -119 z "},"`":{"ha":417,"x_min":57,"x_max":253,"o":"m 253 806 l 175 806 l 57 958 l 168 958 l 253 806 z "},"a":{"ha":738,"x_min":50,"x_max":644,"o":"m 525 0 l 513 106 l 472 26 q 288 -19 406 -19 q 117 36 183 -19 q 50 190 50 92 q 150 380 50 317 q 464 443 250 443 l 511 443 l 511 463 q 508 551 511 524 q 365 664 499 664 q 207 508 219 664 l 82 508 q 166 690 90 625 q 365 756 242 756 q 626 561 607 756 q 631 464 631 518 l 631 188 q 644 0 631 103 l 525 0 m 328 72 q 462 126 413 72 q 511 279 511 181 l 511 354 q 181 200 181 379 q 328 72 181 72 z "},"b":{"ha":849,"x_min":103,"x_max":807,"o":"m 472 756 q 718 651 629 756 q 807 379 807 546 q 703 83 807 186 q 447 -19 600 -19 q 348 -6 399 -19 q 271 29 297 7 l 222 101 l 222 0 l 103 0 l 103 1021 l 222 1021 l 222 618 l 278 697 q 472 756 347 756 m 447 72 q 613 149 549 72 q 676 365 676 225 q 619 580 676 496 q 454 664 561 664 q 288 594 353 664 q 222 375 222 524 l 222 335 q 290 138 222 203 q 447 72 357 72 z "},"c":{"ha":735,"x_min":42,"x_max":699,"o":"m 388 756 q 600 683 518 756 q 699 489 682 611 l 574 489 q 385 664 535 664 q 233 590 293 664 q 172 375 172 517 q 230 148 172 224 q 376 72 288 72 q 499 114 450 72 q 567 235 549 156 l 692 235 q 581 45 665 110 q 369 -19 496 -19 q 132 77 222 -19 q 42 367 42 174 q 142 651 42 546 q 388 756 242 756 z "},"d":{"ha":854,"x_min":42,"x_max":746,"o":"m 746 1021 l 746 0 l 626 0 l 626 118 l 571 39 q 376 -19 501 -19 q 131 85 219 -19 q 42 357 42 190 q 145 653 42 550 q 401 756 249 756 q 501 742 450 756 q 578 707 551 729 l 626 635 l 626 1021 l 746 1021 m 394 72 q 561 142 496 72 q 626 361 626 213 l 626 401 q 559 599 626 533 q 401 664 492 664 q 236 588 300 664 q 172 371 172 511 q 230 156 172 240 q 394 72 288 72 z "},"e":{"ha":763,"x_min":42,"x_max":707,"o":"m 707 389 q 704 332 707 358 l 171 332 q 236 133 179 194 q 382 72 293 72 q 508 116 456 72 q 572 238 560 160 l 697 238 q 587 46 676 111 q 376 -19 497 -19 q 134 79 226 -19 q 42 365 42 178 q 140 649 42 542 q 392 756 239 756 q 624 655 540 756 q 707 389 707 554 m 389 664 q 241 601 300 664 q 172 424 182 539 l 586 424 q 389 664 568 664 z "},"f":{"ha":403,"x_min":29,"x_max":392,"o":"m 232 878 q 228 803 228 849 l 228 731 l 379 731 l 379 639 l 228 639 l 228 0 l 108 0 l 108 639 l 29 639 l 29 731 l 108 731 l 108 792 q 113 881 108 843 q 173 1003 122 960 q 307 1047 224 1047 q 392 1040 350 1047 l 392 942 q 232 878 247 968 z "},"g":{"ha":854,"x_min":42,"x_max":746,"o":"m 746 736 l 746 181 q 744 38 746 78 q 647 -207 739 -122 q 394 -292 556 -292 q 65 -49 89 -292 l 64 -35 l 185 -35 l 186 -47 q 247 -158 193 -117 q 394 -200 301 -200 q 562 -141 503 -200 q 625 25 621 -82 q 626 106 626 60 l 626 118 l 571 39 q 376 -19 501 -19 q 131 85 219 -19 q 42 357 42 190 q 145 653 42 550 q 401 756 249 756 q 501 742 450 756 q 578 707 551 729 l 626 635 l 626 736 l 746 736 m 394 72 q 561 142 496 72 q 626 361 626 213 l 626 401 q 559 599 626 533 q 401 664 492 664 q 236 588 300 664 q 172 371 172 511 q 230 156 172 240 q 394 72 288 72 z "},"h":{"ha":824,"x_min":103,"x_max":725,"o":"m 722 540 q 725 414 725 503 l 725 0 l 606 0 l 606 406 q 603 511 606 474 q 556 622 597 581 q 435 661 515 663 q 281 579 339 658 q 222 324 222 500 l 222 0 l 103 0 l 103 1028 l 222 1028 l 222 610 l 268 694 q 460 756 347 756 q 646 697 578 756 q 722 540 714 639 z "},"i":{"ha":331,"x_min":86,"x_max":239,"o":"m 108 956 q 119 967 108 956 q 163 978 131 978 q 217 956 194 978 q 239 901 239 933 q 217 847 239 869 q 163 825 194 825 q 108 847 131 825 q 86 901 86 869 q 108 956 86 933 m 222 0 l 103 0 l 103 736 l 222 736 l 222 0 z "},"j":{"ha":324,"x_min":-18,"x_max":232,"o":"m 101 956 q 113 967 101 956 q 156 978 124 978 q 210 956 188 978 q 232 901 232 933 q 210 847 232 869 q 156 825 188 825 q 101 847 124 825 q 79 901 79 869 q 101 956 79 933 m 215 736 l 215 -64 q 211 -153 215 -115 q 39 -292 196 -292 q -18 -289 0 -292 l -18 -192 q 93 -131 85 -201 q 96 -69 96 -111 l 96 736 l 215 736 z "},"k":{"ha":725,"x_min":103,"x_max":722,"o":"m 560 0 l 292 311 l 222 235 l 222 0 l 103 0 l 103 1021 l 222 1021 l 222 365 l 565 736 l 718 736 l 375 389 l 722 0 l 560 0 z "},"l":{"ha":343,"x_min":97,"x_max":308,"o":"m 217 1021 l 217 211 q 218 142 217 165 q 240 93 221 106 q 308 86 260 81 l 308 0 q 224 -6 274 -6 q 133 19 165 -6 q 99 110 101 44 q 97 207 97 135 l 97 1021 l 217 1021 z "},"m":{"ha":1188,"x_min":103,"x_max":1089,"o":"m 1082 576 q 1089 450 1089 529 l 1089 0 l 969 0 l 969 394 q 964 538 969 488 q 817 661 947 661 q 656 364 656 661 l 656 0 l 536 0 l 536 394 q 531 538 536 488 q 383 661 514 661 q 222 364 222 661 l 222 0 l 103 0 l 103 736 l 222 736 l 222 629 l 269 713 q 425 756 322 756 q 561 718 507 756 q 638 618 615 681 l 703 713 q 858 756 756 756 q 1011 706 953 756 q 1082 576 1069 657 z "},"n":{"ha":824,"x_min":103,"x_max":725,"o":"m 722 540 q 725 414 725 503 l 725 0 l 606 0 l 606 406 q 603 511 606 474 q 435 661 590 661 q 281 581 340 661 q 222 324 222 500 l 222 0 l 103 0 l 103 736 l 222 736 l 222 610 l 268 694 q 460 756 347 756 q 646 697 578 756 q 722 540 714 639 z "},"o":{"ha":814,"x_min":42,"x_max":772,"o":"m 135 645 q 182 700 135 645 q 407 756 229 756 q 678 645 585 756 q 772 368 772 535 q 678 91 772 201 q 407 -19 585 -19 q 135 91 229 -19 q 42 368 42 201 q 135 645 42 535 m 235 154 q 266 113 235 154 q 407 72 297 72 q 579 154 517 72 q 642 368 642 236 q 579 583 642 501 q 407 664 517 664 q 235 583 297 664 q 172 368 172 501 q 235 154 172 236 z "},"p":{"ha":849,"x_min":103,"x_max":807,"o":"m 472 756 q 718 651 629 756 q 807 379 807 546 q 703 83 807 186 q 447 -19 600 -19 q 348 -6 399 -19 q 271 29 297 7 l 222 101 l 222 -272 l 103 -272 l 103 736 l 222 736 l 222 618 l 278 697 q 472 756 347 756 m 447 72 q 613 149 549 72 q 676 365 676 225 q 619 580 676 496 q 454 664 561 664 q 288 594 353 664 q 222 375 222 524 l 222 335 q 290 138 222 203 q 447 72 357 72 z "},"q":{"ha":854,"x_min":42,"x_max":746,"o":"m 746 736 l 746 -272 l 626 -272 l 626 118 l 571 39 q 376 -19 501 -19 q 131 85 219 -19 q 42 357 42 190 q 145 653 42 550 q 401 756 249 756 q 501 742 450 756 q 578 707 551 729 l 626 635 l 626 736 l 746 736 m 394 72 q 561 142 496 72 q 626 361 626 213 l 626 401 q 559 599 626 533 q 401 664 492 664 q 236 588 300 664 q 172 371 172 511 q 230 156 172 240 q 394 72 288 72 z "},"r":{"ha":458,"x_min":103,"x_max":442,"o":"m 392 753 q 442 743 422 753 l 442 653 q 283 600 343 660 q 222 419 222 540 l 222 0 l 103 0 l 103 736 l 222 736 l 222 621 l 289 719 q 392 753 338 753 z "},"s":{"ha":638,"x_min":33,"x_max":596,"o":"m 317 756 q 506 693 438 756 q 588 526 575 631 l 463 526 q 307 664 436 664 q 216 634 247 664 q 185 554 185 604 q 224 475 185 503 q 346 425 263 447 q 535 335 475 390 q 596 189 596 281 q 520 35 596 89 q 322 -19 444 -19 q 126 39 203 -19 q 33 217 50 97 l 158 217 q 331 72 185 72 q 433 100 393 72 q 474 179 474 128 q 434 264 474 232 q 300 321 394 296 q 124 401 186 351 q 63 540 63 451 q 132 698 63 640 q 317 756 201 756 z "},"t":{"ha":435,"x_min":28,"x_max":383,"o":"m 246 639 l 246 215 q 247 158 246 178 q 278 90 251 106 q 375 83 304 75 l 375 -4 q 274 -11 332 -11 q 169 19 204 -11 q 128 118 133 50 q 126 210 126 138 l 126 639 l 28 639 l 28 731 l 126 731 l 126 901 l 246 901 l 246 731 l 383 731 l 383 639 l 246 639 z "},"u":{"ha":822,"x_min":92,"x_max":714,"o":"m 714 736 l 714 0 l 594 0 l 594 125 l 549 39 q 357 -19 469 -19 q 180 34 247 -19 q 99 168 113 88 q 92 294 92 215 l 92 736 l 211 736 l 211 317 q 217 215 211 265 q 269 113 225 151 q 388 75 314 75 q 538 155 482 75 q 594 413 594 235 l 594 736 l 714 736 z "},"v":{"ha":714,"x_min":1,"x_max":706,"o":"m 706 736 l 426 0 l 281 0 l 1 736 l 133 736 l 358 88 l 579 736 l 706 736 z "},"w":{"ha":1090,"x_min":1,"x_max":1082,"o":"m 1082 736 l 847 0 l 706 0 l 542 619 l 378 0 l 236 0 l 1 736 l 139 736 l 310 114 l 471 736 l 619 736 l 783 118 l 954 736 l 1082 736 z "},"x":{"ha":669,"x_min":-8,"x_max":653,"o":"m 392 375 l 653 0 l 514 0 l 321 296 l 129 0 l -8 0 l 256 372 l 1 736 l 143 736 l 328 451 l 513 736 l 650 736 l 392 375 z "},"y":{"ha":713,"x_min":1,"x_max":704,"o":"m 704 736 l 401 -62 q 294 -236 356 -181 q 143 -292 232 -292 q 82 -289 100 -292 l 82 -192 q 125 -193 100 -193 q 219 -164 182 -193 q 285 -64 257 -135 l 294 -37 l 1 736 l 136 736 l 356 89 l 574 736 l 704 736 z "},"z":{"ha":642,"x_min":28,"x_max":601,"o":"m 601 94 l 601 0 l 28 0 l 28 92 l 456 636 l 58 636 l 58 731 l 594 731 l 594 635 l 169 94 l 601 94 z "},"{":{"ha":421,"x_min":89,"x_max":375,"o":"m 375 1006 l 358 1006 q 276 989 300 1006 q 251 938 251 972 q 267 799 251 907 q 285 628 285 672 q 253 531 285 568 q 164 488 221 494 q 253 442 221 481 q 285 344 285 404 q 267 174 285 300 q 251 35 251 65 q 276 -17 251 0 q 358 -33 300 -33 l 375 -33 l 375 -111 l 360 -111 q 218 -78 265 -111 q 171 36 171 -46 q 188 188 171 69 q 203 340 203 293 q 89 447 203 436 l 89 525 q 203 632 203 536 q 188 785 203 679 q 171 936 171 903 q 218 1051 171 1018 q 360 1083 265 1083 l 375 1083 l 375 1006 z "},"|":{"ha":347,"x_min":133,"x_max":214,"o":"m 214 -278 l 133 -278 l 133 1111 l 214 1111 l 214 -278 z "},"}":{"ha":421,"x_min":46,"x_max":332,"o":"m 332 525 l 332 447 q 218 340 218 436 q 233 188 218 293 q 250 36 250 69 q 203 -78 250 -46 q 61 -111 156 -111 l 46 -111 l 46 -33 l 63 -33 q 145 -17 121 -33 q 169 35 169 0 q 154 174 169 65 q 136 344 136 300 q 168 441 136 404 q 257 485 200 478 q 168 530 200 492 q 136 628 136 568 q 154 799 136 672 q 169 938 169 907 q 145 989 169 972 q 63 1006 121 1006 l 46 1006 l 46 1083 l 61 1083 q 203 1051 156 1083 q 250 936 250 1018 q 233 785 250 903 q 218 632 218 679 q 332 525 218 536 z "},"~":{"ha":806,"x_min":107,"x_max":697,"o":"m 619 494 l 697 494 q 544 310 697 310 q 476 322 507 310 q 383 367 446 333 q 253 415 293 415 q 185 310 185 415 l 107 310 q 260 494 107 494 q 328 483 297 494 q 421 438 358 471 q 551 389 511 389 q 619 494 619 389 z "},"¡":{"ha":336,"x_min":79,"x_max":257,"o":"m 232 603 q 219 590 232 603 q 168 578 207 578 q 104 603 129 578 q 79 667 79 628 q 104 731 79 706 q 168 756 129 756 q 232 731 207 756 q 257 667 257 706 q 232 603 257 628 m 114 486 l 222 486 l 239 -222 l 97 -222 l 114 486 z "},"¢":{"ha":778,"x_min":68,"x_max":725,"o":"m 443 661 l 443 75 q 593 235 561 97 l 718 235 q 623 58 694 121 q 443 -17 551 -6 l 443 -125 l 363 -125 l 363 -18 q 148 89 228 -7 q 68 367 68 185 q 152 630 68 528 q 363 751 236 732 l 363 861 l 443 861 l 443 754 q 635 676 561 747 q 725 489 710 604 l 600 489 q 443 661 565 644 m 199 375 q 244 167 199 242 q 363 76 289 92 l 363 658 q 244 569 289 640 q 199 375 199 497 z "},"£":{"ha":806,"x_min":94,"x_max":719,"o":"m 719 97 l 719 0 l 94 0 l 94 86 q 246 278 246 124 q 208 440 246 357 l 107 440 l 107 518 l 171 518 q 128 692 128 615 q 213 898 128 818 q 425 978 299 978 q 634 903 560 978 q 717 706 708 829 l 589 706 q 535 840 576 796 q 422 883 494 883 q 303 833 344 883 q 261 715 261 783 q 272 624 261 663 q 313 518 282 585 l 613 518 l 613 440 l 344 440 q 372 299 372 369 q 347 185 372 231 q 267 97 322 139 l 719 97 z "},"¤":{"ha":806,"x_min":117,"x_max":690,"o":"m 653 418 q 607 272 653 338 l 690 189 l 633 132 l 550 215 q 403 168 482 168 q 257 215 319 168 l 174 133 l 117 190 l 200 272 q 153 418 153 335 q 200 565 153 497 l 117 649 l 174 706 l 257 622 q 403 668 322 668 q 549 621 486 668 l 633 706 l 690 649 l 606 564 q 653 418 653 501 m 285 297 q 309 273 285 297 q 403 249 332 249 q 520 297 474 249 q 567 418 567 344 q 520 540 567 492 q 403 588 474 588 q 285 540 332 588 q 239 418 239 492 q 285 297 239 344 z "},"¥":{"ha":806,"x_min":32,"x_max":774,"o":"m 518 496 l 688 496 l 688 418 l 475 418 l 463 396 l 463 329 l 688 329 l 688 251 l 463 251 l 463 0 l 343 0 l 343 251 l 118 251 l 118 329 l 343 329 l 343 396 l 331 418 l 118 418 l 118 496 l 288 496 l 32 958 l 179 958 l 408 499 l 633 958 l 774 958 l 518 496 z "},"¦":{"ha":347,"x_min":133,"x_max":214,"o":"m 214 486 l 133 486 l 133 958 l 214 958 l 214 486 m 214 -222 l 133 -222 l 133 250 l 214 250 l 214 -222 z "},"§":{"ha":778,"x_min":46,"x_max":738,"o":"m 738 342 q 700 222 738 275 q 600 140 663 169 q 657 -18 657 76 q 577 -183 657 -125 q 382 -242 497 -242 q 182 -181 260 -242 q 90 0 104 -121 l 215 0 q 390 -150 253 -150 q 490 -118 451 -150 q 529 -28 529 -86 q 483 76 529 35 q 321 147 438 118 q 121 244 196 178 q 46 408 46 310 q 190 617 46 563 q 135 758 135 676 q 205 919 135 860 q 385 978 275 978 q 575 917 506 978 q 656 747 644 856 l 531 747 q 480 849 518 813 q 385 886 442 886 q 297 856 331 886 q 263 771 263 825 q 308 673 263 713 q 450 606 353 633 q 669 502 601 564 q 738 342 738 440 m 506 207 q 581 251 553 217 q 610 328 610 286 q 563 427 610 389 q 404 500 515 465 q 286 547 338 521 q 204 510 235 543 q 174 414 174 476 q 226 316 174 358 q 367 253 278 274 q 506 207 444 235 z "},"¨":{"ha":417,"x_min":43,"x_max":374,"o":"m 62 919 q 71 928 62 919 q 107 938 81 938 q 152 919 133 938 q 171 874 171 900 q 152 828 171 847 q 107 810 133 810 q 62 828 81 810 q 43 874 43 847 q 62 919 43 900 m 265 919 q 274 928 265 919 q 310 938 283 938 q 355 919 336 938 q 374 874 374 900 q 355 828 374 847 q 310 810 336 810 q 265 828 283 810 q 246 874 246 847 q 265 919 246 900 z "},"©":{"ha":1164,"x_min":50,"x_max":1114,"o":"m 203 878 q 280 956 203 878 q 582 1033 357 1033 q 960 878 807 1033 q 1114 493 1114 722 q 960 108 1114 264 q 582 -47 807 -47 q 203 108 357 -47 q 50 493 50 264 q 203 878 50 722 m 899 820 q 835 886 899 820 q 582 953 771 953 q 265 820 393 953 q 136 493 136 688 q 265 165 136 297 q 582 33 393 33 q 899 165 771 33 q 1028 493 1028 297 q 899 820 1028 688 m 590 814 q 773 753 701 814 q 865 590 844 692 l 738 590 q 590 719 713 719 q 467 659 510 719 q 424 494 424 599 q 469 328 424 390 q 590 267 514 267 q 688 303 649 267 q 736 396 728 340 l 864 396 q 768 232 839 292 q 578 172 697 172 q 370 260 450 172 q 290 490 290 347 q 372 726 290 639 q 590 814 454 814 z "},"«":{"ha":774,"x_min":167,"x_max":694,"o":"m 458 575 l 268 344 l 458 114 l 357 114 l 167 344 l 357 575 l 458 575 m 694 575 l 504 344 l 694 114 l 593 114 l 403 344 l 593 575 l 694 575 z "},"¬":{"ha":806,"x_min":139,"x_max":651,"o":"m 651 292 l 571 292 l 571 456 l 139 456 l 139 533 l 651 533 l 651 292 z "},"®":{"ha":706,"x_min":61,"x_max":644,"o":"m 143 979 q 184 1020 143 979 q 353 1061 225 1061 q 563 979 481 1061 q 644 769 644 897 q 563 560 644 642 q 353 478 481 478 q 143 560 225 478 q 61 769 61 642 q 143 979 61 897 m 191 606 q 223 574 191 606 q 353 542 254 542 q 515 606 451 542 q 578 769 578 669 q 515 933 578 869 q 353 997 451 997 q 191 933 254 997 q 128 769 128 869 q 191 606 128 669 m 417 768 q 461 707 456 761 q 479 632 467 660 l 400 632 q 390 694 394 654 q 350 726 386 726 l 318 726 l 318 632 l 249 632 l 249 915 l 346 915 q 383 914 371 915 q 476 838 476 904 q 417 768 476 788 m 372 786 q 400 822 400 792 q 372 857 400 850 q 346 858 364 858 l 318 858 l 318 785 l 346 785 q 372 786 364 785 z "},"¯":{"ha":417,"x_min":42,"x_max":375,"o":"m 375 839 l 42 839 l 42 911 l 375 911 l 375 839 z "},"°":{"ha":414,"x_min":39,"x_max":375,"o":"m 86 932 q 110 955 86 932 q 207 978 133 978 q 328 932 281 978 q 375 813 375 886 q 328 693 375 739 q 207 647 281 647 q 86 693 133 647 q 39 813 39 739 q 86 932 39 886 m 266 876 q 255 888 266 876 q 207 900 243 900 q 148 876 171 900 q 125 813 125 851 q 148 749 125 774 q 207 725 171 725 q 266 749 243 725 q 289 813 289 774 q 266 876 289 851 z "},"±":{"ha":806,"x_min":111,"x_max":694,"o":"m 443 482 l 694 482 l 694 404 l 443 404 l 443 154 l 363 154 l 363 404 l 111 404 l 111 482 l 363 482 l 363 726 l 443 726 l 443 482 m 694 0 l 111 0 l 111 78 l 694 78 l 694 0 z "},"´":{"ha":417,"x_min":161,"x_max":357,"o":"m 239 806 l 161 806 l 246 958 l 357 958 l 239 806 z "},"¶":{"ha":786,"x_min":61,"x_max":678,"o":"m 678 958 l 678 -153 l 597 -153 l 597 881 l 469 881 l 469 -153 l 389 -153 l 389 444 l 357 444 q 279 446 303 444 q 119 524 176 451 q 61 701 61 597 q 119 878 61 806 q 279 957 176 951 q 357 958 303 958 l 678 958 z "},"·":{"ha":281,"x_min":44,"x_max":236,"o":"m 72 492 q 86 506 72 492 q 140 519 100 519 q 208 492 181 519 q 236 424 236 464 q 208 356 236 383 q 140 328 181 328 q 72 356 100 328 q 44 424 44 383 q 72 492 44 464 z "},"¸":{"ha":417,"x_min":92,"x_max":332,"o":"m 257 13 l 219 -56 q 332 -171 332 -71 q 285 -260 332 -228 q 161 -292 239 -292 q 92 -279 121 -292 l 92 -218 q 165 -233 121 -233 q 251 -172 251 -233 q 118 -108 251 -99 l 183 13 l 257 13 z "},"»":{"ha":774,"x_min":79,"x_max":607,"o":"m 371 344 l 181 114 l 79 114 l 269 344 l 79 575 l 181 575 l 371 344 m 607 344 l 417 114 l 315 114 l 506 344 l 315 575 l 417 575 l 607 344 z "},"¿":{"ha":682,"x_min":92,"x_max":693,"o":"m 471 603 q 458 590 471 603 q 407 578 446 578 q 343 603 368 578 q 318 667 318 628 q 343 731 318 706 q 407 756 368 756 q 471 731 446 756 q 496 667 496 706 q 471 603 496 628 m 381 -242 q 168 -170 244 -242 q 92 13 92 -99 q 238 296 92 150 q 322 397 300 358 q 347 486 344 435 l 467 486 q 437 377 460 424 q 356 264 414 331 q 253 126 281 178 q 225 13 225 74 q 268 -103 225 -60 q 385 -147 311 -147 q 513 -97 464 -147 q 568 50 563 -46 l 693 50 q 603 -162 689 -83 q 381 -242 518 -242 z "},"À":{"ha":888,"x_min":40,"x_max":876,"o":"m 432 1022 l 324 1153 l 435 1153 l 510 1022 l 432 1022 m 633 339 l 281 339 l 168 0 l 40 0 l 385 958 l 546 958 l 876 0 l 747 0 l 633 339 m 314 436 l 601 436 l 463 864 l 314 436 z "},"Á":{"ha":888,"x_min":40,"x_max":876,"o":"m 497 1022 l 419 1022 l 494 1153 l 606 1153 l 497 1022 m 633 339 l 281 339 l 168 0 l 40 0 l 385 958 l 546 958 l 876 0 l 747 0 l 633 339 m 314 436 l 601 436 l 463 864 l 314 436 z "},"Â":{"ha":888,"x_min":40,"x_max":876,"o":"m 424 1022 l 332 1022 l 425 1153 l 507 1153 l 600 1022 l 507 1022 l 465 1099 l 424 1022 m 633 339 l 281 339 l 168 0 l 40 0 l 385 958 l 546 958 l 876 0 l 747 0 l 633 339 m 314 436 l 601 436 l 463 864 l 314 436 z "},"Ã":{"ha":888,"x_min":40,"x_max":876,"o":"m 393 1069 q 371 1042 371 1069 l 318 1042 q 336 1119 318 1097 q 390 1140 354 1140 q 476 1122 422 1140 q 538 1107 522 1107 q 560 1135 560 1107 l 613 1135 q 594 1058 613 1079 q 540 1036 576 1036 q 454 1054 508 1036 q 393 1069 408 1069 m 633 339 l 281 339 l 168 0 l 40 0 l 385 958 l 546 958 l 876 0 l 747 0 l 633 339 m 314 436 l 601 436 l 463 864 l 314 436 z "},"Ä":{"ha":888,"x_min":40,"x_max":876,"o":"m 413 1042 q 404 1033 413 1042 q 368 1024 394 1024 q 323 1042 342 1024 q 304 1088 304 1061 q 323 1133 304 1114 q 368 1151 342 1151 q 413 1133 394 1151 q 432 1088 432 1114 q 413 1042 432 1061 m 608 1042 q 598 1033 608 1042 q 563 1024 589 1024 q 517 1042 536 1024 q 499 1088 499 1061 q 517 1133 499 1114 q 563 1151 536 1151 q 608 1133 589 1151 q 626 1088 626 1114 q 608 1042 626 1061 m 633 339 l 281 339 l 168 0 l 40 0 l 385 958 l 546 958 l 876 0 l 747 0 l 633 339 m 314 436 l 601 436 l 463 864 l 314 436 z "},"Å":{"ha":888,"x_min":40,"x_max":876,"o":"m 556 1025 q 539 1010 556 1025 q 465 994 521 994 q 374 1025 410 994 q 339 1104 339 1056 q 374 1183 339 1153 q 465 1214 410 1214 q 556 1183 521 1214 q 592 1104 592 1153 q 556 1025 592 1056 m 506 1147 q 498 1156 506 1147 q 465 1164 490 1164 q 424 1147 440 1164 q 408 1104 408 1131 q 424 1061 408 1078 q 465 1044 440 1044 q 506 1061 490 1044 q 522 1104 522 1078 q 506 1147 522 1131 m 633 339 l 281 339 l 168 0 l 40 0 l 385 958 l 546 958 l 876 0 l 747 0 l 633 339 m 314 436 l 601 436 l 463 864 l 314 436 z "},"Æ":{"ha":1261,"x_min":-49,"x_max":1222,"o":"m 1222 97 l 1222 0 l 618 0 l 599 339 l 272 339 l 81 0 l -49 0 l 504 958 l 1208 958 l 1208 861 l 688 861 l 707 528 l 1167 528 l 1167 431 l 713 431 l 732 97 l 1222 97 m 592 436 l 568 863 l 326 436 l 592 436 z "},"Ç":{"ha":971,"x_min":65,"x_max":910,"o":"m 782 319 l 901 319 l 900 306 q 786 76 886 168 q 511 -19 686 -17 l 492 -56 q 604 -171 604 -71 q 558 -260 604 -228 q 433 -292 511 -292 q 364 -279 393 -292 l 364 -218 q 438 -233 393 -233 q 524 -172 524 -233 q 390 -108 524 -99 l 440 -17 q 164 140 263 4 q 65 475 65 275 q 190 837 65 696 q 518 978 315 978 q 794 889 694 978 q 908 653 893 800 l 910 639 l 790 639 l 788 653 q 515 883 740 883 q 285 770 371 883 q 199 481 199 657 q 283 188 199 301 q 507 75 367 75 q 779 306 732 75 l 782 319 z "},"È":{"ha":815,"x_min":139,"x_max":776,"o":"m 433 1022 l 325 1153 l 436 1153 l 511 1022 l 433 1022 m 776 97 l 776 0 l 139 0 l 139 958 l 763 958 l 763 861 l 258 861 l 258 528 l 721 528 l 721 431 l 258 431 l 258 97 l 776 97 z "},"É":{"ha":815,"x_min":139,"x_max":776,"o":"m 499 1022 l 421 1022 l 496 1153 l 607 1153 l 499 1022 m 776 97 l 776 0 l 139 0 l 139 958 l 763 958 l 763 861 l 258 861 l 258 528 l 721 528 l 721 431 l 258 431 l 258 97 l 776 97 z "},"Ê":{"ha":815,"x_min":139,"x_max":776,"o":"m 425 1022 l 333 1022 l 426 1153 l 508 1153 l 601 1022 l 508 1022 l 467 1099 l 425 1022 m 776 97 l 776 0 l 139 0 l 139 958 l 763 958 l 763 861 l 258 861 l 258 528 l 721 528 l 721 431 l 258 431 l 258 97 l 776 97 z "},"Ë":{"ha":815,"x_min":139,"x_max":776,"o":"m 415 1042 q 405 1033 415 1042 q 369 1024 396 1024 q 324 1042 343 1024 q 306 1088 306 1061 q 324 1133 306 1114 q 369 1151 343 1151 q 415 1133 396 1151 q 433 1088 433 1114 q 415 1042 433 1061 m 609 1042 q 600 1033 609 1042 q 564 1024 590 1024 q 519 1042 538 1024 q 500 1088 500 1061 q 519 1133 500 1114 q 564 1151 538 1151 q 609 1133 590 1151 q 628 1088 628 1114 q 609 1042 628 1061 m 776 97 l 776 0 l 139 0 l 139 958 l 763 958 l 763 861 l 258 861 l 258 528 l 721 528 l 721 431 l 258 431 l 258 97 l 776 97 z "},"Ì":{"ha":367,"x_min":57,"x_max":258,"o":"m 243 1022 l 165 1022 l 57 1153 l 168 1153 l 243 1022 m 258 0 l 139 0 l 139 958 l 258 958 l 258 0 z "},"Í":{"ha":367,"x_min":139,"x_max":339,"o":"m 231 1022 l 153 1022 l 228 1153 l 339 1153 l 231 1022 m 258 0 l 139 0 l 139 958 l 258 958 l 258 0 z "},"Î":{"ha":367,"x_min":65,"x_max":333,"o":"m 157 1022 l 65 1022 l 158 1153 l 240 1153 l 333 1022 l 240 1022 l 199 1099 l 157 1022 m 139 958 l 258 958 l 258 0 l 139 0 l 139 958 z "},"Ï":{"ha":367,"x_min":38,"x_max":360,"o":"m 56 1133 q 66 1142 56 1133 q 101 1151 75 1151 q 147 1133 128 1151 q 165 1088 165 1114 q 147 1042 165 1061 q 101 1024 128 1024 q 56 1042 75 1024 q 38 1088 38 1061 q 56 1133 38 1114 m 251 1133 q 260 1142 251 1133 q 296 1151 269 1151 q 341 1133 322 1151 q 360 1088 360 1114 q 341 1042 360 1061 q 296 1024 322 1024 q 251 1042 269 1024 q 232 1088 232 1061 q 251 1133 232 1114 m 258 0 l 139 0 l 139 958 l 258 958 l 258 0 z "},"Ð":{"ha":974,"x_min":46,"x_max":921,"o":"m 542 953 q 818 814 715 931 q 921 490 921 697 q 814 156 921 285 q 535 6 707 26 q 413 0 486 0 l 128 0 l 128 424 l 46 424 l 46 501 l 128 501 l 128 958 l 419 958 q 542 953 493 958 m 522 104 q 719 224 647 125 q 790 490 790 324 q 722 741 790 647 q 529 854 653 835 q 413 861 490 861 l 247 861 l 247 501 l 436 501 l 436 424 l 247 424 l 247 97 l 406 97 q 522 104 483 97 z "},"Ñ":{"ha":997,"x_min":139,"x_max":889,"o":"m 439 1140 q 525 1122 471 1140 q 586 1107 571 1107 q 608 1135 608 1107 l 661 1135 q 643 1058 661 1079 q 589 1036 625 1036 q 503 1054 557 1036 q 442 1069 457 1069 q 419 1042 419 1069 l 367 1042 q 385 1119 367 1097 q 439 1140 403 1140 m 889 0 l 706 0 l 254 842 q 258 479 258 672 l 258 0 l 139 0 l 139 958 l 322 958 l 774 117 q 769 479 769 285 l 769 958 l 886 958 l 889 0 z "},"Ò":{"ha":1024,"x_min":65,"x_max":971,"o":"m 485 1022 l 376 1153 l 488 1153 l 563 1022 l 485 1022 m 185 841 q 244 909 185 841 q 518 978 304 978 q 851 841 732 978 q 971 479 971 704 q 851 118 971 256 q 518 -19 732 -19 q 185 118 304 -19 q 65 479 65 256 q 185 841 65 704 m 283 183 q 326 129 283 183 q 518 75 368 75 q 753 183 668 75 q 838 479 838 292 q 753 776 838 668 q 518 883 668 883 q 283 776 368 883 q 199 479 199 668 q 283 183 199 292 z "},"Ó":{"ha":1024,"x_min":65,"x_max":971,"o":"m 550 1022 l 472 1022 l 547 1153 l 658 1153 l 550 1022 m 185 841 q 244 909 185 841 q 518 978 304 978 q 851 841 732 978 q 971 479 971 704 q 851 118 971 256 q 518 -19 732 -19 q 185 118 304 -19 q 65 479 65 256 q 185 841 65 704 m 283 183 q 326 129 283 183 q 518 75 368 75 q 753 183 668 75 q 838 479 838 292 q 753 776 838 668 q 518 883 668 883 q 283 776 368 883 q 199 479 199 668 q 283 183 199 292 z "},"Ô":{"ha":1024,"x_min":65,"x_max":971,"o":"m 476 1022 l 385 1022 l 478 1153 l 560 1153 l 653 1022 l 560 1022 l 518 1099 l 476 1022 m 185 841 q 244 909 185 841 q 518 978 304 978 q 851 841 732 978 q 971 479 971 704 q 851 118 971 256 q 518 -19 732 -19 q 185 118 304 -19 q 65 479 65 256 q 185 841 65 704 m 283 183 q 326 129 283 183 q 518 75 368 75 q 753 183 668 75 q 838 479 838 292 q 753 776 838 668 q 518 883 668 883 q 283 776 368 883 q 199 479 199 668 q 283 183 199 292 z "},"Õ":{"ha":1024,"x_min":65,"x_max":971,"o":"m 446 1069 q 424 1042 424 1069 l 371 1042 q 389 1119 371 1097 q 443 1140 407 1140 q 529 1122 475 1140 q 590 1107 575 1107 q 613 1135 613 1107 l 665 1135 q 647 1058 665 1079 q 593 1036 629 1036 q 507 1054 561 1036 q 446 1069 461 1069 m 185 841 q 244 909 185 841 q 518 978 304 978 q 851 841 732 978 q 971 479 971 704 q 851 118 971 256 q 518 -19 732 -19 q 185 118 304 -19 q 65 479 65 256 q 185 841 65 704 m 283 183 q 326 129 283 183 q 518 75 368 75 q 753 183 668 75 q 838 479 838 292 q 753 776 838 668 q 518 883 668 883 q 283 776 368 883 q 199 479 199 668 q 283 183 199 292 z "},"Ö":{"ha":1024,"x_min":65,"x_max":971,"o":"m 466 1042 q 457 1033 466 1042 q 421 1024 447 1024 q 376 1042 394 1024 q 357 1088 357 1061 q 376 1133 357 1114 q 421 1151 394 1151 q 466 1133 447 1151 q 485 1088 485 1114 q 466 1042 485 1061 m 660 1042 q 651 1033 660 1042 q 615 1024 642 1024 q 570 1042 589 1024 q 551 1088 551 1061 q 570 1133 551 1114 q 615 1151 589 1151 q 660 1133 642 1151 q 679 1088 679 1114 q 660 1042 679 1061 m 185 841 q 244 909 185 841 q 518 978 304 978 q 851 841 732 978 q 971 479 971 704 q 851 118 971 256 q 518 -19 732 -19 q 185 118 304 -19 q 65 479 65 256 q 185 841 65 704 m 283 183 q 326 129 283 183 q 518 75 368 75 q 753 183 668 75 q 838 479 838 292 q 753 776 838 668 q 518 883 668 883 q 283 776 368 883 q 199 479 199 668 q 283 183 199 292 z "},"×":{"ha":806,"x_min":154,"x_max":651,"o":"m 460 436 l 651 244 l 594 188 l 403 379 l 211 188 l 154 244 l 346 436 l 154 628 l 211 685 l 403 493 l 594 685 l 651 628 l 460 436 z "},"Ø":{"ha":1035,"x_min":60,"x_max":988,"o":"m 988 886 l 894 793 q 976 479 976 667 q 857 118 976 256 q 524 -19 738 -19 q 204 103 324 -19 l 117 15 l 60 72 l 154 167 q 71 479 71 292 q 190 841 71 704 q 524 978 310 978 q 843 856 724 978 l 931 943 l 988 886 m 204 479 q 244 257 204 350 l 761 774 q 524 883 675 883 q 289 776 374 883 q 204 479 204 668 m 843 479 q 803 701 843 608 l 288 186 q 524 75 371 75 q 758 183 674 75 q 843 479 843 292 z "},"Ù":{"ha":947,"x_min":131,"x_max":850,"o":"m 535 1022 l 457 1022 l 349 1153 l 460 1153 l 535 1022 m 850 958 l 850 354 q 847 268 850 296 q 747 60 836 140 q 490 -19 657 -19 q 234 60 324 -19 q 133 268 144 140 q 131 354 131 296 l 131 958 l 250 958 l 250 365 q 253 281 250 306 q 322 131 261 186 q 490 75 383 75 q 658 131 597 75 q 728 281 719 186 q 731 365 731 306 l 731 958 l 850 958 z "},"Ú":{"ha":947,"x_min":131,"x_max":850,"o":"m 522 1022 l 444 1022 l 519 1153 l 631 1153 l 522 1022 m 850 958 l 850 354 q 847 268 850 296 q 747 60 836 140 q 490 -19 657 -19 q 234 60 324 -19 q 133 268 144 140 q 131 354 131 296 l 131 958 l 250 958 l 250 365 q 253 281 250 306 q 322 131 261 186 q 490 75 383 75 q 658 131 597 75 q 728 281 719 186 q 731 365 731 306 l 731 958 l 850 958 z "},"Û":{"ha":947,"x_min":131,"x_max":850,"o":"m 449 1022 l 357 1022 l 450 1153 l 532 1153 l 625 1022 l 532 1022 l 490 1099 l 449 1022 m 850 958 l 850 354 q 847 268 850 296 q 747 60 836 140 q 490 -19 657 -19 q 234 60 324 -19 q 133 268 144 140 q 131 354 131 296 l 131 958 l 250 958 l 250 365 q 253 281 250 306 q 322 131 261 186 q 490 75 383 75 q 658 131 597 75 q 728 281 719 186 q 731 365 731 306 l 731 958 l 850 958 z "},"Ü":{"ha":947,"x_min":131,"x_max":850,"o":"m 348 1133 q 357 1142 348 1133 q 393 1151 367 1151 q 438 1133 419 1151 q 457 1088 457 1114 q 438 1042 457 1061 q 393 1024 419 1024 q 348 1042 367 1024 q 329 1088 329 1061 q 348 1133 329 1114 m 542 1133 q 552 1142 542 1133 q 588 1151 561 1151 q 633 1133 614 1151 q 651 1088 651 1114 q 633 1042 651 1061 q 588 1024 614 1024 q 542 1042 561 1024 q 524 1088 524 1061 q 542 1133 524 1114 m 850 958 l 850 354 q 847 268 850 296 q 747 60 836 140 q 490 -19 657 -19 q 234 60 324 -19 q 133 268 144 140 q 131 354 131 296 l 131 958 l 250 958 l 250 365 q 253 281 250 306 q 322 131 261 186 q 490 75 383 75 q 658 131 597 75 q 728 281 719 186 q 731 365 731 306 l 731 958 l 850 958 z "},"Ý":{"ha":807,"x_min":26,"x_max":824,"o":"m 457 1022 l 379 1022 l 454 1153 l 565 1153 l 457 1022 m 485 378 l 485 0 l 365 0 l 365 378 l 26 958 l 164 958 l 431 493 l 689 958 l 824 958 l 485 378 z "},"Þ":{"ha":875,"x_min":139,"x_max":810,"o":"m 568 831 q 743 749 676 817 q 810 567 810 681 q 743 383 810 453 q 568 299 676 313 q 443 293 525 293 l 258 293 l 258 0 l 139 0 l 139 958 l 258 958 l 258 836 l 443 836 q 568 831 525 836 m 550 400 q 682 564 682 429 q 550 729 682 700 q 443 736 517 736 l 258 736 l 258 393 l 443 393 q 550 400 517 393 z "},"ß":{"ha":844,"x_min":103,"x_max":789,"o":"m 425 1047 q 648 981 565 1047 q 731 804 731 914 q 688 661 731 731 q 581 553 581 604 q 600 489 581 517 q 671 419 619 461 q 761 319 733 368 q 789 197 789 269 q 714 49 789 104 q 528 -6 639 -6 q 392 8 460 -6 l 392 104 q 522 86 464 86 q 622 119 589 86 q 656 207 656 151 q 638 278 656 244 q 567 357 619 311 q 473 456 499 417 q 447 553 447 496 q 572 714 447 653 q 597 803 597 757 q 552 913 597 874 q 419 953 507 953 q 285 901 339 953 q 225 753 232 850 q 222 678 222 714 l 222 0 l 103 0 l 103 667 q 106 756 103 706 q 202 973 114 899 q 425 1047 290 1047 z "},"à":{"ha":738,"x_min":50,"x_max":644,"o":"m 333 806 l 215 958 l 326 958 l 411 806 l 333 806 m 525 0 l 513 106 l 472 26 q 288 -19 406 -19 q 117 36 183 -19 q 50 190 50 92 q 150 380 50 317 q 464 443 250 443 l 511 443 l 511 463 q 508 551 511 524 q 365 664 499 664 q 207 508 219 664 l 82 508 q 166 690 90 625 q 365 756 242 756 q 626 561 607 756 q 631 464 631 518 l 631 188 q 644 0 631 103 l 525 0 m 328 72 q 462 126 413 72 q 511 279 511 181 l 511 354 q 181 200 181 379 q 328 72 181 72 z "},"á":{"ha":738,"x_min":50,"x_max":644,"o":"m 397 806 l 319 806 l 404 958 l 515 958 l 397 806 m 525 0 l 513 106 l 472 26 q 288 -19 406 -19 q 117 36 183 -19 q 50 190 50 92 q 150 380 50 317 q 464 443 250 443 l 511 443 l 511 463 q 508 551 511 524 q 365 664 499 664 q 207 508 219 664 l 82 508 q 166 690 90 625 q 365 756 242 756 q 626 561 607 756 q 631 464 631 518 l 631 188 q 644 0 631 103 l 525 0 m 328 72 q 462 126 413 72 q 511 279 511 181 l 511 354 q 181 200 181 379 q 328 72 181 72 z "},"â":{"ha":738,"x_min":50,"x_max":644,"o":"m 321 806 l 233 806 l 326 958 l 408 958 l 501 806 l 413 806 l 367 893 l 321 806 m 525 0 l 513 106 l 472 26 q 288 -19 406 -19 q 117 36 183 -19 q 50 190 50 92 q 150 380 50 317 q 464 443 250 443 l 511 443 l 511 463 q 508 551 511 524 q 365 664 499 664 q 207 508 219 664 l 82 508 q 166 690 90 625 q 365 756 242 756 q 626 561 607 756 q 631 464 631 518 l 631 188 q 644 0 631 103 l 525 0 m 328 72 q 462 126 413 72 q 511 279 511 181 l 511 354 q 181 200 181 379 q 328 72 181 72 z "},"ã":{"ha":738,"x_min":50,"x_max":644,"o":"m 294 861 q 272 833 272 861 l 219 833 q 238 910 219 889 q 292 932 256 932 q 378 914 324 932 q 439 899 424 899 q 461 926 461 899 l 514 926 q 496 849 514 871 q 442 828 478 828 q 356 846 410 828 q 294 861 310 861 m 525 0 l 513 106 l 472 26 q 288 -19 406 -19 q 117 36 183 -19 q 50 190 50 92 q 150 380 50 317 q 464 443 250 443 l 511 443 l 511 463 q 508 551 511 524 q 365 664 499 664 q 207 508 219 664 l 82 508 q 166 690 90 625 q 365 756 242 756 q 626 561 607 756 q 631 464 631 518 l 631 188 q 644 0 631 103 l 525 0 m 328 72 q 462 126 413 72 q 511 279 511 181 l 511 354 q 181 200 181 379 q 328 72 181 72 z "},"ä":{"ha":738,"x_min":50,"x_max":644,"o":"m 310 828 q 301 819 310 828 q 265 810 292 810 q 220 828 239 810 q 201 874 201 847 q 220 919 201 900 q 265 938 239 938 q 310 919 292 938 q 329 874 329 900 q 310 828 329 847 m 513 828 q 504 819 513 828 q 468 810 494 810 q 423 828 442 810 q 404 874 404 847 q 423 919 404 900 q 468 938 442 938 q 513 919 494 938 q 532 874 532 900 q 513 828 532 847 m 525 0 l 513 106 l 472 26 q 288 -19 406 -19 q 117 36 183 -19 q 50 190 50 92 q 150 380 50 317 q 464 443 250 443 l 511 443 l 511 463 q 508 551 511 524 q 365 664 499 664 q 207 508 219 664 l 82 508 q 166 690 90 625 q 365 756 242 756 q 626 561 607 756 q 631 464 631 518 l 631 188 q 644 0 631 103 l 525 0 m 328 72 q 462 126 413 72 q 511 279 511 181 l 511 354 q 181 200 181 379 q 328 72 181 72 z "},"å":{"ha":738,"x_min":50,"x_max":644,"o":"m 458 817 q 440 801 458 817 q 367 785 422 785 q 276 817 311 785 q 240 901 240 850 q 276 985 240 953 q 367 1018 311 1018 q 458 985 422 1018 q 493 901 493 953 q 458 817 493 850 m 408 950 q 400 959 408 950 q 367 968 392 968 q 326 950 342 968 q 310 901 310 932 q 326 853 310 871 q 367 835 342 835 q 408 853 392 835 q 424 901 424 871 q 408 950 424 932 m 525 0 l 513 106 l 472 26 q 288 -19 406 -19 q 117 36 183 -19 q 50 190 50 92 q 150 380 50 317 q 464 443 250 443 l 511 443 l 511 463 q 508 551 511 524 q 365 664 499 664 q 207 508 219 664 l 82 508 q 166 690 90 625 q 365 756 242 756 q 626 561 607 756 q 631 464 631 518 l 631 188 q 644 0 631 103 l 525 0 m 328 72 q 462 126 413 72 q 511 279 511 181 l 511 354 q 181 200 181 379 q 328 72 181 72 z "},"æ":{"ha":1233,"x_min":50,"x_max":1178,"o":"m 1178 389 q 1175 332 1178 358 l 644 332 q 710 137 653 201 q 853 72 767 72 q 978 116 926 72 q 1043 238 1031 160 l 1168 238 q 1058 46 1147 111 q 847 -19 968 -19 q 571 140 650 -19 l 533 65 q 297 -19 436 -19 q 121 36 192 -19 q 50 190 50 92 q 154 369 50 314 q 478 424 258 424 l 525 424 l 525 463 q 365 664 525 664 q 207 508 214 664 l 82 508 q 160 690 85 625 q 365 756 236 756 q 610 622 556 756 q 863 756 697 756 q 1094 655 1011 756 q 1178 389 1178 554 m 644 424 l 1057 424 q 860 664 1038 664 q 713 602 769 664 q 644 424 656 540 m 525 290 l 525 332 q 265 312 349 339 q 181 200 181 285 q 328 72 181 72 q 469 132 413 72 q 525 290 525 192 z "},"ç":{"ha":735,"x_min":42,"x_max":699,"o":"m 376 72 q 499 114 450 72 q 567 235 549 156 l 692 235 q 588 50 667 114 q 390 -19 508 -14 l 371 -56 q 483 -171 483 -71 q 437 -260 483 -228 q 313 -292 390 -292 q 243 -279 272 -292 l 243 -218 q 317 -233 272 -233 q 403 -172 403 -233 q 269 -108 403 -99 l 319 -17 q 117 94 192 -1 q 42 367 42 190 q 142 651 42 546 q 388 756 242 756 q 600 683 518 756 q 699 489 682 611 l 574 489 q 385 664 535 664 q 233 590 293 664 q 172 375 172 517 q 230 148 172 224 q 376 72 288 72 z "},"è":{"ha":763,"x_min":42,"x_max":707,"o":"m 351 806 l 233 958 l 344 958 l 429 806 l 351 806 m 707 389 q 704 332 707 358 l 171 332 q 236 133 179 194 q 382 72 293 72 q 508 116 456 72 q 572 238 560 160 l 697 238 q 587 46 676 111 q 376 -19 497 -19 q 134 79 226 -19 q 42 365 42 178 q 140 649 42 542 q 392 756 239 756 q 624 655 540 756 q 707 389 707 554 m 389 664 q 241 601 300 664 q 172 424 182 539 l 586 424 q 389 664 568 664 z "},"é":{"ha":763,"x_min":42,"x_max":707,"o":"m 415 806 l 338 806 l 422 958 l 533 958 l 415 806 m 707 389 q 704 332 707 358 l 171 332 q 236 133 179 194 q 382 72 293 72 q 508 116 456 72 q 572 238 560 160 l 697 238 q 587 46 676 111 q 376 -19 497 -19 q 134 79 226 -19 q 42 365 42 178 q 140 649 42 542 q 392 756 239 756 q 624 655 540 756 q 707 389 707 554 m 389 664 q 241 601 300 664 q 172 424 182 539 l 586 424 q 389 664 568 664 z "},"ê":{"ha":763,"x_min":42,"x_max":707,"o":"m 339 806 l 251 806 l 344 958 l 426 958 l 519 806 l 431 806 l 385 893 l 339 806 m 707 389 q 704 332 707 358 l 171 332 q 236 133 179 194 q 382 72 293 72 q 508 116 456 72 q 572 238 560 160 l 697 238 q 587 46 676 111 q 376 -19 497 -19 q 134 79 226 -19 q 42 365 42 178 q 140 649 42 542 q 392 756 239 756 q 624 655 540 756 q 707 389 707 554 m 389 664 q 241 601 300 664 q 172 424 182 539 l 586 424 q 389 664 568 664 z "},"ë":{"ha":763,"x_min":42,"x_max":707,"o":"m 328 828 q 319 819 328 828 q 283 810 310 810 q 238 828 257 810 q 219 874 219 847 q 238 919 219 900 q 283 938 257 938 q 328 919 310 938 q 347 874 347 900 q 328 828 347 847 m 531 828 q 522 819 531 828 q 486 810 513 810 q 441 828 460 810 q 422 874 422 847 q 441 919 422 900 q 486 938 460 938 q 531 919 513 938 q 550 874 550 900 q 531 828 550 847 m 707 389 q 704 332 707 358 l 171 332 q 236 133 179 194 q 382 72 293 72 q 508 116 456 72 q 572 238 560 160 l 697 238 q 587 46 676 111 q 376 -19 497 -19 q 134 79 226 -19 q 42 365 42 178 q 140 649 42 542 q 392 756 239 756 q 624 655 540 756 q 707 389 707 554 m 389 664 q 241 601 300 664 q 172 424 182 539 l 586 424 q 389 664 568 664 z "},"ì":{"ha":331,"x_min":11,"x_max":222,"o":"m 207 806 l 129 806 l 11 958 l 122 958 l 207 806 m 222 0 l 103 0 l 103 736 l 222 736 l 222 0 z "},"í":{"ha":331,"x_min":103,"x_max":311,"o":"m 193 806 l 115 806 l 200 958 l 311 958 l 193 806 m 222 0 l 103 0 l 103 736 l 222 736 l 222 0 z "},"î":{"ha":331,"x_min":29,"x_max":297,"o":"m 117 806 l 29 806 l 122 958 l 204 958 l 297 806 l 208 806 l 163 893 l 117 806 m 103 736 l 222 736 l 222 0 l 103 0 l 103 736 z "},"ï":{"ha":331,"x_min":-3,"x_max":328,"o":"m 16 919 q 25 928 16 919 q 61 938 35 938 q 106 919 88 938 q 125 874 125 900 q 106 828 125 847 q 61 810 88 810 q 16 828 35 810 q -3 874 -3 847 q 16 919 -3 900 m 219 919 q 228 928 219 919 q 264 938 238 938 q 309 919 290 938 q 328 874 328 900 q 309 828 328 847 q 264 810 290 810 q 219 828 238 810 q 200 874 200 847 q 219 919 200 900 m 222 0 l 103 0 l 103 736 l 222 736 l 222 0 z "},"ð":{"ha":813,"x_min":42,"x_max":747,"o":"m 671 919 l 613 896 q 747 426 747 740 q 644 90 747 199 q 385 -19 542 -19 q 130 85 218 -19 q 42 357 42 189 q 140 647 42 538 q 378 756 239 756 q 540 715 472 756 l 603 632 q 508 853 593 767 l 317 774 l 289 846 l 440 908 q 335 958 392 938 l 410 1035 q 550 954 489 1003 l 643 992 l 671 919 m 617 361 l 617 401 q 549 599 617 533 q 392 664 482 664 q 233 583 294 664 q 172 371 172 501 q 228 151 172 231 q 393 72 285 72 q 553 146 490 72 q 617 361 617 219 z "},"ñ":{"ha":824,"x_min":103,"x_max":725,"o":"m 351 861 q 329 833 329 861 l 276 833 q 294 910 276 889 q 349 932 313 932 q 435 914 381 932 q 496 899 481 899 q 518 926 518 899 l 571 926 q 553 849 571 871 q 499 828 535 828 q 413 846 467 828 q 351 861 367 861 m 722 540 q 725 414 725 503 l 725 0 l 606 0 l 606 406 q 603 511 606 474 q 435 661 590 661 q 281 581 340 661 q 222 324 222 500 l 222 0 l 103 0 l 103 736 l 222 736 l 222 610 l 268 694 q 460 756 347 756 q 646 697 578 756 q 722 540 714 639 z "},"ò":{"ha":814,"x_min":42,"x_max":772,"o":"m 374 806 l 256 958 l 367 958 l 451 806 l 374 806 m 135 645 q 182 700 135 645 q 407 756 229 756 q 678 645 585 756 q 772 368 772 535 q 678 91 772 201 q 407 -19 585 -19 q 135 91 229 -19 q 42 368 42 201 q 135 645 42 535 m 235 154 q 266 113 235 154 q 407 72 297 72 q 579 154 517 72 q 642 368 642 236 q 579 583 642 501 q 407 664 517 664 q 235 583 297 664 q 172 368 172 501 q 235 154 172 236 z "},"ó":{"ha":814,"x_min":42,"x_max":772,"o":"m 438 806 l 360 806 l 444 958 l 556 958 l 438 806 m 135 645 q 182 700 135 645 q 407 756 229 756 q 678 645 585 756 q 772 368 772 535 q 678 91 772 201 q 407 -19 585 -19 q 135 91 229 -19 q 42 368 42 201 q 135 645 42 535 m 235 154 q 266 113 235 154 q 407 72 297 72 q 579 154 517 72 q 642 368 642 236 q 579 583 642 501 q 407 664 517 664 q 235 583 297 664 q 172 368 172 501 q 235 154 172 236 z "},"ô":{"ha":814,"x_min":42,"x_max":772,"o":"m 361 806 l 274 806 l 367 958 l 449 958 l 542 806 l 453 806 l 407 893 l 361 806 m 135 645 q 182 700 135 645 q 407 756 229 756 q 678 645 585 756 q 772 368 772 535 q 678 91 772 201 q 407 -19 585 -19 q 135 91 229 -19 q 42 368 42 201 q 135 645 42 535 m 235 154 q 266 113 235 154 q 407 72 297 72 q 579 154 517 72 q 642 368 642 236 q 579 583 642 501 q 407 664 517 664 q 235 583 297 664 q 172 368 172 501 q 235 154 172 236 z "},"õ":{"ha":814,"x_min":42,"x_max":772,"o":"m 335 861 q 313 833 313 861 l 260 833 q 278 910 260 889 q 332 932 296 932 q 418 914 364 932 q 479 899 464 899 q 501 926 501 899 l 554 926 q 536 849 554 871 q 482 828 518 828 q 396 846 450 828 q 335 861 350 861 m 135 645 q 182 700 135 645 q 407 756 229 756 q 678 645 585 756 q 772 368 772 535 q 678 91 772 201 q 407 -19 585 -19 q 135 91 229 -19 q 42 368 42 201 q 135 645 42 535 m 235 154 q 266 113 235 154 q 407 72 297 72 q 579 154 517 72 q 642 368 642 236 q 579 583 642 501 q 407 664 517 664 q 235 583 297 664 q 172 368 172 501 q 235 154 172 236 z "},"ö":{"ha":814,"x_min":42,"x_max":772,"o":"m 351 828 q 341 819 351 828 q 306 810 332 810 q 260 828 279 810 q 242 874 242 847 q 260 919 242 900 q 306 938 279 938 q 351 919 332 938 q 369 874 369 900 q 351 828 369 847 m 553 828 q 544 819 553 828 q 508 810 535 810 q 463 828 482 810 q 444 874 444 847 q 463 919 444 900 q 508 938 482 938 q 553 919 535 938 q 572 874 572 900 q 553 828 572 847 m 135 645 q 182 700 135 645 q 407 756 229 756 q 678 645 585 756 q 772 368 772 535 q 678 91 772 201 q 407 -19 585 -19 q 135 91 229 -19 q 42 368 42 201 q 135 645 42 535 m 235 154 q 266 113 235 154 q 407 72 297 72 q 579 154 517 72 q 642 368 642 236 q 579 583 642 501 q 407 664 517 664 q 235 583 297 664 q 172 368 172 501 q 235 154 172 236 z "},"÷":{"ha":806,"x_min":111,"x_max":694,"o":"m 350 718 q 361 729 350 718 q 406 740 372 740 q 461 718 439 740 q 483 663 483 696 q 461 607 483 629 q 406 585 439 585 q 350 607 372 585 q 328 663 328 629 q 350 718 328 696 m 694 404 l 111 404 l 111 482 l 694 482 l 694 404 m 350 274 q 361 285 350 274 q 406 296 372 296 q 461 274 439 296 q 483 218 483 251 q 461 163 483 185 q 406 140 439 140 q 350 163 372 140 q 328 218 328 185 q 350 274 328 251 z "},"ø":{"ha":861,"x_min":36,"x_max":825,"o":"m 825 706 l 722 603 q 785 368 785 504 q 691 91 785 201 q 419 -19 597 -19 q 179 60 274 -19 l 93 -26 l 36 31 l 125 119 q 54 368 54 221 q 148 645 54 535 q 419 756 242 756 q 671 665 576 756 l 768 763 l 825 706 m 185 368 q 215 210 185 275 l 590 585 q 419 664 526 664 q 247 583 310 664 q 185 368 185 501 m 654 368 q 631 511 654 447 l 260 140 q 419 72 321 72 q 592 154 529 72 q 654 368 654 236 z "},"ù":{"ha":822,"x_min":92,"x_max":714,"o":"m 369 806 l 251 958 l 363 958 l 447 806 l 369 806 m 714 736 l 714 0 l 594 0 l 594 125 l 549 39 q 357 -19 469 -19 q 180 34 247 -19 q 99 168 113 88 q 92 294 92 215 l 92 736 l 211 736 l 211 317 q 217 215 211 265 q 269 113 225 151 q 388 75 314 75 q 538 155 482 75 q 594 413 594 235 l 594 736 l 714 736 z "},"ú":{"ha":822,"x_min":92,"x_max":714,"o":"m 433 806 l 356 806 l 440 958 l 551 958 l 433 806 m 714 736 l 714 0 l 594 0 l 594 125 l 549 39 q 357 -19 469 -19 q 180 34 247 -19 q 99 168 113 88 q 92 294 92 215 l 92 736 l 211 736 l 211 317 q 217 215 211 265 q 269 113 225 151 q 388 75 314 75 q 538 155 482 75 q 594 413 594 235 l 594 736 l 714 736 z "},"û":{"ha":822,"x_min":92,"x_max":714,"o":"m 357 806 l 269 806 l 363 958 l 444 958 l 538 806 l 449 806 l 403 893 l 357 806 m 714 736 l 714 0 l 594 0 l 594 125 l 549 39 q 357 -19 469 -19 q 180 34 247 -19 q 99 168 113 88 q 92 294 92 215 l 92 736 l 211 736 l 211 317 q 217 215 211 265 q 269 113 225 151 q 388 75 314 75 q 538 155 482 75 q 594 413 594 235 l 594 736 l 714 736 z "},"ü":{"ha":822,"x_min":92,"x_max":714,"o":"m 347 828 q 337 819 347 828 q 301 810 328 810 q 256 828 275 810 q 238 874 238 847 q 256 919 238 900 q 301 938 275 938 q 347 919 328 938 q 365 874 365 900 q 347 828 365 847 m 549 828 q 540 819 549 828 q 504 810 531 810 q 459 828 478 810 q 440 874 440 847 q 459 919 440 900 q 504 938 478 938 q 549 919 531 938 q 568 874 568 900 q 549 828 568 847 m 714 736 l 714 0 l 594 0 l 594 125 l 549 39 q 357 -19 469 -19 q 180 34 247 -19 q 99 168 113 88 q 92 294 92 215 l 92 736 l 211 736 l 211 317 q 217 215 211 265 q 269 113 225 151 q 388 75 314 75 q 538 155 482 75 q 594 413 594 235 l 594 736 l 714 736 z "},"ý":{"ha":713,"x_min":1,"x_max":704,"o":"m 388 806 l 310 806 l 394 958 l 506 958 l 388 806 m 704 736 l 401 -62 q 294 -236 356 -181 q 143 -292 232 -292 q 82 -289 100 -292 l 82 -192 q 125 -193 100 -193 q 219 -164 182 -193 q 285 -64 257 -135 l 294 -37 l 1 736 l 136 736 l 356 89 l 574 736 l 704 736 z "},"þ":{"ha":849,"x_min":103,"x_max":807,"o":"m 472 756 q 718 651 629 756 q 807 379 807 546 q 703 83 807 186 q 447 -19 600 -19 q 348 -6 399 -19 q 271 29 297 7 l 222 101 l 222 -272 l 103 -272 l 103 1021 l 222 1021 l 222 618 l 278 697 q 472 756 347 756 m 447 72 q 613 149 549 72 q 676 365 676 225 q 619 580 676 496 q 454 664 561 664 q 288 594 353 664 q 222 375 222 524 l 222 335 q 290 138 222 203 q 447 72 357 72 z "},"ÿ":{"ha":713,"x_min":1,"x_max":704,"o":"m 301 828 q 291 819 301 828 q 256 810 282 810 q 210 828 229 810 q 192 874 192 847 q 210 919 192 900 q 256 938 229 938 q 301 919 282 938 q 319 874 319 900 q 301 828 319 847 m 503 828 q 494 819 503 828 q 458 810 485 810 q 413 828 432 810 q 394 874 394 847 q 413 919 394 900 q 458 938 432 938 q 503 919 485 938 q 522 874 522 900 q 503 828 522 847 m 704 736 l 401 -62 q 294 -236 356 -181 q 143 -292 232 -292 q 82 -289 100 -292 l 82 -192 q 125 -193 100 -193 q 219 -164 182 -193 q 285 -64 257 -135 l 294 -37 l 1 736 l 136 736 l 356 89 l 574 736 l 704 736 z "},"Ā":{"ha":888,"x_min":40,"x_max":876,"o":"m 632 1051 l 299 1051 l 299 1124 l 632 1124 l 632 1051 m 633 339 l 281 339 l 168 0 l 40 0 l 385 958 l 546 958 l 876 0 l 747 0 l 633 339 m 314 436 l 601 436 l 463 864 l 314 436 z "},"ā":{"ha":738,"x_min":50,"x_max":644,"o":"m 533 839 l 200 839 l 200 911 l 533 911 l 533 839 m 525 0 l 513 106 l 472 26 q 288 -19 406 -19 q 117 36 183 -19 q 50 190 50 92 q 150 380 50 317 q 464 443 250 443 l 511 443 l 511 463 q 508 551 511 524 q 365 664 499 664 q 207 508 219 664 l 82 508 q 166 690 90 625 q 365 756 242 756 q 626 561 607 756 q 631 464 631 518 l 631 188 q 644 0 631 103 l 525 0 m 328 72 q 462 126 413 72 q 511 279 511 181 l 511 354 q 181 200 181 379 q 328 72 181 72 z "},"Ă":{"ha":888,"x_min":40,"x_max":876,"o":"m 607 1153 q 465 1003 607 1003 q 324 1153 324 1003 l 397 1153 q 465 1079 399 1079 q 533 1153 532 1079 l 607 1153 m 633 339 l 281 339 l 168 0 l 40 0 l 385 958 l 546 958 l 876 0 l 747 0 l 633 339 m 314 436 l 601 436 l 463 864 l 314 436 z "},"ă":{"ha":738,"x_min":50,"x_max":644,"o":"m 367 786 q 259 828 293 786 q 225 958 225 871 l 299 958 q 367 863 300 863 q 435 958 433 863 l 508 958 q 367 786 508 786 m 525 0 l 513 106 l 472 26 q 288 -19 406 -19 q 117 36 183 -19 q 50 190 50 92 q 150 380 50 317 q 464 443 250 443 l 511 443 l 511 463 q 508 551 511 524 q 365 664 499 664 q 207 508 219 664 l 82 508 q 166 690 90 625 q 365 756 242 756 q 626 561 607 756 q 631 464 631 518 l 631 188 q 644 0 631 103 l 525 0 m 328 72 q 462 126 413 72 q 511 279 511 181 l 511 354 q 181 200 181 379 q 328 72 181 72 z "},"Ą":{"ha":888,"x_min":40,"x_max":876,"o":"m 700 -165 q 761 -235 700 -235 q 839 -207 803 -235 l 839 -275 q 715 -310 788 -310 q 586 -192 586 -310 q 631 -64 586 -118 q 742 15 675 -10 l 633 339 l 281 339 l 168 0 l 40 0 l 385 958 l 546 958 l 876 0 l 831 0 q 738 -56 776 -10 q 700 -165 700 -101 m 314 436 l 601 436 l 463 864 l 314 436 z "},"ą":{"ha":738,"x_min":50,"x_max":644,"o":"m 482 -165 q 543 -235 482 -235 q 621 -207 585 -235 l 621 -275 q 497 -310 569 -310 q 368 -192 368 -310 q 413 -65 368 -118 q 524 15 457 -11 l 513 106 l 472 26 q 288 -19 406 -19 q 117 36 183 -19 q 50 190 50 92 q 150 380 50 317 q 464 443 250 443 l 511 443 l 511 463 q 508 551 511 524 q 365 664 499 664 q 207 508 219 664 l 82 508 q 166 690 90 625 q 365 756 242 756 q 626 561 607 756 q 631 464 631 518 l 631 188 q 644 0 631 103 l 613 0 q 520 -56 558 -10 q 482 -165 482 -101 m 328 72 q 462 126 413 72 q 511 279 511 181 l 511 354 q 181 200 181 379 q 328 72 181 72 z "},"Ć":{"ha":971,"x_min":65,"x_max":910,"o":"m 540 1022 l 463 1022 l 538 1153 l 649 1153 l 540 1022 m 518 978 q 794 889 694 978 q 908 653 893 800 l 910 639 l 790 639 l 788 653 q 515 883 740 883 q 285 770 371 883 q 199 481 199 657 q 283 188 199 301 q 507 75 367 75 q 779 306 732 75 l 782 319 l 901 319 l 900 306 q 783 73 886 165 q 500 -19 679 -19 q 181 119 296 -19 q 65 475 65 258 q 190 837 65 696 q 518 978 315 978 z "},"ć":{"ha":735,"x_min":42,"x_max":699,"o":"m 404 806 l 326 806 l 411 958 l 522 958 l 404 806 m 388 756 q 600 683 518 756 q 699 489 682 611 l 574 489 q 385 664 535 664 q 233 590 293 664 q 172 375 172 517 q 230 148 172 224 q 376 72 288 72 q 499 114 450 72 q 567 235 549 156 l 692 235 q 581 45 665 110 q 369 -19 496 -19 q 132 77 222 -19 q 42 367 42 174 q 142 651 42 546 q 388 756 242 756 z "},"Ċ":{"ha":971,"x_min":65,"x_max":910,"o":"m 463 1133 q 473 1142 463 1133 q 508 1151 482 1151 q 553 1133 535 1151 q 572 1088 572 1114 q 553 1042 572 1061 q 508 1024 535 1024 q 463 1042 482 1024 q 444 1088 444 1061 q 463 1133 444 1114 m 518 978 q 794 889 694 978 q 908 653 893 800 l 910 639 l 790 639 l 788 653 q 515 883 740 883 q 285 770 371 883 q 199 481 199 657 q 283 188 199 301 q 507 75 367 75 q 779 306 732 75 l 782 319 l 901 319 l 900 306 q 783 73 886 165 q 500 -19 679 -19 q 181 119 296 -19 q 65 475 65 258 q 190 837 65 696 q 518 978 315 978 z "},"ċ":{"ha":735,"x_min":42,"x_max":699,"o":"m 319 956 q 331 967 319 956 q 374 978 342 978 q 428 956 406 978 q 450 901 450 933 q 428 847 450 869 q 374 825 406 825 q 319 847 342 825 q 297 901 297 869 q 319 956 297 933 m 388 756 q 600 683 518 756 q 699 489 682 611 l 574 489 q 385 664 535 664 q 233 590 293 664 q 172 375 172 517 q 230 148 172 224 q 376 72 288 72 q 499 114 450 72 q 567 235 549 156 l 692 235 q 581 45 665 110 q 369 -19 496 -19 q 132 77 222 -19 q 42 367 42 174 q 142 651 42 546 q 388 756 242 756 z "},"Č":{"ha":971,"x_min":65,"x_max":910,"o":"m 468 1022 l 375 1153 l 468 1153 l 510 1076 l 551 1153 l 643 1153 l 550 1022 l 468 1022 m 782 319 l 901 319 l 900 306 q 783 73 886 165 q 500 -19 679 -19 q 181 119 296 -19 q 65 475 65 258 q 190 837 65 696 q 518 978 315 978 q 794 889 694 978 q 908 653 893 800 l 910 639 l 790 639 l 788 653 q 515 883 740 883 q 285 770 371 883 q 199 481 199 657 q 283 188 199 301 q 507 75 367 75 q 779 306 732 75 l 782 319 z "},"č":{"ha":735,"x_min":42,"x_max":699,"o":"m 333 806 l 240 958 l 329 958 l 375 871 l 421 958 l 508 958 l 415 806 l 333 806 m 376 72 q 499 114 450 72 q 567 235 549 156 l 692 235 q 581 45 665 110 q 369 -19 496 -19 q 132 77 222 -19 q 42 367 42 174 q 142 651 42 546 q 388 756 242 756 q 600 683 518 756 q 699 489 682 611 l 574 489 q 385 664 535 664 q 233 590 293 664 q 172 375 172 517 q 230 148 172 224 q 376 72 288 72 z "},"Ď":{"ha":985,"x_min":139,"x_max":932,"o":"m 474 1022 l 381 1153 l 474 1153 l 515 1076 l 557 1153 l 649 1153 l 556 1022 l 474 1022 m 553 953 q 829 814 726 931 q 932 490 932 697 q 825 156 932 285 q 546 6 718 26 q 424 0 497 0 l 139 0 l 139 958 l 431 958 q 553 953 504 958 m 533 104 q 730 224 658 125 q 801 490 801 324 q 733 741 801 647 q 540 854 664 835 q 424 861 503 861 l 258 861 l 258 97 l 417 97 q 533 104 494 97 z "},"ď":{"ha":854,"x_min":42,"x_max":950,"o":"m 626 1021 l 746 1021 l 746 0 l 626 0 l 626 118 l 571 39 q 376 -19 501 -19 q 131 85 219 -19 q 42 357 42 190 q 145 653 42 550 q 401 756 249 756 q 501 742 450 756 q 578 707 551 729 l 626 635 l 626 1021 m 950 1021 l 950 1004 l 867 821 l 782 821 l 854 1021 l 950 1021 m 394 72 q 561 142 496 72 q 626 361 626 213 l 626 401 q 559 599 626 533 q 401 664 492 664 q 236 588 300 664 q 172 371 172 511 q 230 156 172 240 q 394 72 288 72 z "},"Đ":{"ha":974,"x_min":46,"x_max":921,"o":"m 542 953 q 818 814 715 931 q 921 490 921 697 q 814 156 921 285 q 535 6 707 26 q 413 0 486 0 l 128 0 l 128 424 l 46 424 l 46 501 l 128 501 l 128 958 l 419 958 q 542 953 493 958 m 522 104 q 719 224 647 125 q 790 490 790 324 q 722 741 790 647 q 529 854 653 835 q 413 861 490 861 l 247 861 l 247 501 l 436 501 l 436 424 l 247 424 l 247 97 l 406 97 q 522 104 483 97 z "},"đ":{"ha":860,"x_min":42,"x_max":807,"o":"m 807 826 l 746 826 l 746 0 l 626 0 l 626 118 l 571 39 q 376 -19 501 -19 q 131 85 219 -19 q 42 357 42 190 q 145 653 42 550 q 401 756 249 756 q 501 742 450 756 q 578 707 551 729 l 626 635 l 626 826 l 465 826 l 465 904 l 626 904 l 626 1021 l 746 1021 l 746 904 l 807 904 l 807 826 m 394 72 q 561 142 496 72 q 626 361 626 213 l 626 401 q 559 599 626 533 q 401 664 492 664 q 236 588 300 664 q 172 371 172 511 q 230 156 172 240 q 394 72 288 72 z "},"Ē":{"ha":815,"x_min":139,"x_max":776,"o":"m 633 1051 l 300 1051 l 300 1124 l 633 1124 l 633 1051 m 776 97 l 776 0 l 139 0 l 139 958 l 763 958 l 763 861 l 258 861 l 258 528 l 721 528 l 721 431 l 258 431 l 258 97 l 776 97 z "},"ē":{"ha":763,"x_min":42,"x_max":707,"o":"m 551 839 l 218 839 l 218 911 l 551 911 l 551 839 m 707 389 q 704 332 707 358 l 171 332 q 236 133 179 194 q 382 72 293 72 q 508 116 456 72 q 572 238 560 160 l 697 238 q 587 46 676 111 q 376 -19 497 -19 q 134 79 226 -19 q 42 365 42 178 q 140 649 42 542 q 392 756 239 756 q 624 655 540 756 q 707 389 707 554 m 389 664 q 241 601 300 664 q 172 424 182 539 l 586 424 q 389 664 568 664 z "},"Ė":{"ha":815,"x_min":139,"x_max":776,"o":"m 512 1042 q 502 1033 512 1042 q 467 1024 493 1024 q 422 1042 440 1024 q 403 1088 403 1061 q 422 1133 403 1114 q 467 1151 440 1151 q 512 1133 493 1151 q 531 1088 531 1114 q 512 1042 531 1061 m 776 97 l 776 0 l 139 0 l 139 958 l 763 958 l 763 861 l 258 861 l 258 528 l 721 528 l 721 431 l 258 431 l 258 97 l 776 97 z "},"ė":{"ha":763,"x_min":42,"x_max":707,"o":"m 439 847 q 428 836 439 847 q 385 825 417 825 q 331 847 353 825 q 308 901 308 869 q 331 956 308 933 q 385 978 353 978 q 439 956 417 978 q 461 901 461 933 q 439 847 461 869 m 707 389 q 704 332 707 358 l 171 332 q 236 133 179 194 q 382 72 293 72 q 508 116 456 72 q 572 238 560 160 l 697 238 q 587 46 676 111 q 376 -19 497 -19 q 134 79 226 -19 q 42 365 42 178 q 140 649 42 542 q 392 756 239 756 q 624 655 540 756 q 707 389 707 554 m 389 664 q 241 601 300 664 q 172 424 182 539 l 586 424 q 389 664 568 664 z "},"Ę":{"ha":815,"x_min":139,"x_max":786,"o":"m 708 -235 q 786 -207 750 -235 l 786 -275 q 663 -310 735 -310 q 533 -192 533 -310 q 657 0 533 -65 l 139 0 l 139 958 l 763 958 l 763 861 l 258 861 l 258 528 l 721 528 l 721 431 l 258 431 l 258 97 l 776 97 l 776 0 l 778 0 q 685 -56 724 -10 q 647 -165 647 -101 q 708 -235 647 -235 z "},"ę":{"ha":763,"x_min":42,"x_max":707,"o":"m 707 389 q 704 332 707 358 l 171 332 q 236 133 179 194 q 382 72 293 72 q 508 116 456 72 q 572 238 560 160 l 697 238 q 500 0 668 57 l 471 -8 q 398 -69 426 -26 q 369 -165 369 -111 q 431 -235 369 -235 q 508 -207 472 -235 l 508 -275 q 385 -310 457 -310 q 256 -192 256 -310 q 349 -18 256 -86 q 126 88 210 -10 q 42 365 42 186 q 140 649 42 542 q 392 756 239 756 q 624 655 540 756 q 707 389 707 554 m 389 664 q 241 601 300 664 q 172 424 182 539 l 586 424 q 389 664 568 664 z "},"Ě":{"ha":815,"x_min":139,"x_max":776,"o":"m 426 1022 l 333 1153 l 426 1153 l 468 1076 l 510 1153 l 601 1153 l 508 1022 l 426 1022 m 776 97 l 776 0 l 139 0 l 139 958 l 763 958 l 763 861 l 258 861 l 258 528 l 721 528 l 721 431 l 258 431 l 258 97 l 776 97 z "},"ě":{"ha":763,"x_min":42,"x_max":707,"o":"m 344 806 l 251 958 l 340 958 l 386 871 l 432 958 l 519 958 l 426 806 l 344 806 m 707 389 q 704 332 707 358 l 171 332 q 236 133 179 194 q 382 72 293 72 q 508 116 456 72 q 572 238 560 160 l 697 238 q 587 46 676 111 q 376 -19 497 -19 q 134 79 226 -19 q 42 365 42 178 q 140 649 42 542 q 392 756 239 756 q 624 655 540 756 q 707 389 707 554 m 389 664 q 241 601 300 664 q 172 424 182 539 l 586 424 q 389 664 568 664 z "},"Ğ":{"ha":986,"x_min":65,"x_max":910,"o":"m 646 1153 q 504 1003 646 1003 q 363 1153 363 1003 l 436 1153 q 504 1079 438 1079 q 572 1153 571 1079 l 646 1153 m 554 463 l 897 463 l 897 0 l 792 0 l 792 167 l 749 78 q 500 -19 663 -19 q 181 119 296 -19 q 65 475 65 258 q 190 837 65 696 q 518 978 315 978 q 794 889 694 978 q 908 653 893 800 l 910 639 l 790 639 l 788 653 q 515 883 740 883 q 285 770 371 883 q 199 481 199 657 q 283 188 199 301 q 507 75 367 75 q 701 156 624 75 q 778 365 778 238 l 554 365 l 554 463 z "},"ğ":{"ha":854,"x_min":42,"x_max":746,"o":"m 421 786 q 313 828 347 786 q 279 958 279 871 l 353 958 q 421 863 354 863 q 489 958 488 863 l 563 958 q 421 786 563 786 m 746 736 l 746 181 q 744 38 746 78 q 647 -207 739 -122 q 394 -292 556 -292 q 65 -49 89 -292 l 64 -35 l 185 -35 l 186 -47 q 247 -158 193 -117 q 394 -200 301 -200 q 562 -141 503 -200 q 625 25 621 -82 q 626 106 626 60 l 626 118 l 571 39 q 376 -19 501 -19 q 131 85 219 -19 q 42 357 42 190 q 145 653 42 550 q 401 756 249 756 q 501 742 450 756 q 578 707 551 729 l 626 635 l 626 736 l 746 736 m 394 72 q 561 142 496 72 q 626 361 626 213 l 626 401 q 559 599 626 533 q 401 664 492 664 q 236 588 300 664 q 172 371 172 511 q 230 156 172 240 q 394 72 288 72 z "},"Ġ":{"ha":986,"x_min":65,"x_max":910,"o":"m 549 1042 q 540 1033 549 1042 q 504 1024 531 1024 q 459 1042 478 1024 q 440 1088 440 1061 q 459 1133 440 1114 q 504 1151 478 1151 q 549 1133 531 1151 q 568 1088 568 1114 q 549 1042 568 1061 m 554 463 l 897 463 l 897 0 l 792 0 l 792 167 l 749 78 q 500 -19 663 -19 q 181 119 296 -19 q 65 475 65 258 q 190 837 65 696 q 518 978 315 978 q 794 889 694 978 q 908 653 893 800 l 910 639 l 790 639 l 788 653 q 515 883 740 883 q 285 770 371 883 q 199 481 199 657 q 283 188 199 301 q 507 75 367 75 q 701 156 624 75 q 778 365 778 238 l 554 365 l 554 463 z "},"ġ":{"ha":854,"x_min":42,"x_max":746,"o":"m 475 847 q 464 836 475 847 q 421 825 453 825 q 367 847 389 825 q 344 901 344 869 q 367 956 344 933 q 421 978 389 978 q 475 956 453 978 q 497 901 497 933 q 475 847 497 869 m 746 736 l 746 181 q 744 38 746 78 q 647 -207 739 -122 q 394 -292 556 -292 q 65 -49 89 -292 l 64 -35 l 185 -35 l 186 -47 q 247 -158 193 -117 q 394 -200 301 -200 q 562 -141 503 -200 q 625 25 621 -82 q 626 106 626 60 l 626 118 l 571 39 q 376 -19 501 -19 q 131 85 219 -19 q 42 357 42 190 q 145 653 42 550 q 401 756 249 756 q 501 742 450 756 q 578 707 551 729 l 626 635 l 626 736 l 746 736 m 394 72 q 561 142 496 72 q 626 361 626 213 l 626 401 q 559 599 626 533 q 401 664 492 664 q 236 588 300 664 q 172 371 172 511 q 230 156 172 240 q 394 72 288 72 z "},"Ģ":{"ha":986,"x_min":65,"x_max":910,"o":"m 554 463 l 897 463 l 897 0 l 792 0 l 792 167 l 749 78 q 500 -19 663 -19 q 181 119 296 -19 q 65 475 65 258 q 190 837 65 696 q 518 978 315 978 q 794 889 694 978 q 908 653 893 800 l 910 639 l 790 639 l 788 653 q 515 883 740 883 q 285 770 371 883 q 199 481 199 657 q 283 188 199 301 q 507 75 367 75 q 701 156 624 75 q 778 365 778 238 l 554 365 l 554 463 m 467 -71 l 563 -71 l 563 -87 l 479 -271 l 394 -271 l 467 -71 z "},"ģ":{"ha":854,"x_min":42,"x_max":746,"o":"m 464 807 l 368 807 l 368 824 l 451 1007 l 536 1007 l 464 807 m 746 736 l 746 181 q 744 38 746 78 q 647 -207 739 -122 q 394 -292 556 -292 q 65 -49 89 -292 l 64 -35 l 185 -35 l 186 -47 q 247 -158 193 -117 q 394 -200 301 -200 q 562 -141 503 -200 q 625 25 621 -82 q 626 106 626 60 l 626 118 l 571 39 q 376 -19 501 -19 q 131 85 219 -19 q 42 357 42 190 q 145 653 42 550 q 401 756 249 756 q 501 742 450 756 q 578 707 551 729 l 626 635 l 626 736 l 746 736 m 394 72 q 561 142 496 72 q 626 361 626 213 l 626 401 q 559 599 626 533 q 401 664 492 664 q 236 588 300 664 q 172 371 172 511 q 230 156 172 240 q 394 72 288 72 z "},"Ħ":{"ha":1014,"x_min":83,"x_max":961,"o":"m 961 697 l 906 697 l 906 0 l 786 0 l 786 419 l 258 419 l 258 0 l 139 0 l 139 697 l 83 697 l 83 775 l 139 775 l 139 958 l 258 958 l 258 775 l 786 775 l 786 958 l 906 958 l 906 775 l 961 775 l 961 697 m 786 697 l 258 697 l 258 519 l 786 519 l 786 697 z "},"ħ":{"ha":846,"x_min":47,"x_max":747,"o":"m 744 540 q 747 414 747 503 l 747 0 l 628 0 l 628 406 q 625 511 628 474 q 578 622 619 581 q 457 661 538 663 q 303 579 361 658 q 244 324 244 500 l 244 0 l 125 0 l 125 826 l 47 826 l 47 904 l 125 904 l 125 1028 l 244 1028 l 244 904 l 389 904 l 389 826 l 244 826 l 244 610 l 290 694 q 482 756 369 756 q 668 697 600 756 q 744 540 736 639 z "},"Ī":{"ha":367,"x_min":32,"x_max":365,"o":"m 365 1051 l 32 1051 l 32 1124 l 365 1124 l 365 1051 m 258 0 l 139 0 l 139 958 l 258 958 l 258 0 z "},"ī":{"ha":331,"x_min":-4,"x_max":329,"o":"m 329 839 l -4 839 l -4 911 l 329 911 l 329 839 m 222 0 l 103 0 l 103 736 l 222 736 l 222 0 z "},"Į":{"ha":367,"x_min":-19,"x_max":258,"o":"m 258 0 l 225 0 q 133 -56 171 -10 q 94 -165 94 -101 q 156 -235 94 -235 q 233 -207 197 -235 l 233 -275 q 110 -310 182 -310 q -19 -192 -19 -310 q 26 -63 -19 -117 q 138 15 71 -10 l 139 15 l 139 958 l 258 958 l 258 0 z "},"į":{"ha":331,"x_min":-54,"x_max":239,"o":"m 217 847 q 206 836 217 847 q 163 825 194 825 q 108 847 131 825 q 86 901 86 869 q 108 956 86 933 q 163 978 131 978 q 217 956 194 978 q 239 901 239 933 q 217 847 239 869 m 103 736 l 222 736 l 222 0 l 190 0 q 98 -56 136 -10 q 60 -165 60 -101 q 121 -235 60 -235 q 199 -207 163 -235 l 199 -275 q 75 -310 147 -310 q -54 -192 -54 -310 q -9 -63 -54 -117 q 103 15 36 -10 l 103 736 z "},"İ":{"ha":367,"x_min":135,"x_max":263,"o":"m 153 1133 q 163 1142 153 1133 q 199 1151 172 1151 q 244 1133 225 1151 q 263 1088 263 1114 q 244 1042 263 1061 q 199 1024 225 1024 q 153 1042 172 1024 q 135 1088 135 1061 q 153 1133 135 1114 m 258 0 l 139 0 l 139 958 l 258 958 l 258 0 z "},"ı":{"ha":331,"x_min":103,"x_max":222,"o":"m 222 0 l 103 0 l 103 736 l 222 736 l 222 0 z "},"Ĳ":{"ha":1122,"x_min":139,"x_max":1044,"o":"m 258 0 l 139 0 l 139 958 l 258 958 l 258 0 m 1044 958 l 1044 367 q 1042 251 1044 299 q 957 53 1035 125 q 732 -19 879 -19 q 523 58 599 -19 q 444 269 447 135 l 443 326 l 563 326 l 565 269 q 749 75 575 75 q 924 258 910 75 q 925 371 925 286 l 925 958 l 1044 958 z "},"ĳ":{"ha":654,"x_min":86,"x_max":563,"o":"m 108 956 q 119 967 108 956 q 163 978 131 978 q 217 956 194 978 q 239 901 239 933 q 217 847 239 869 q 163 825 194 825 q 108 847 131 825 q 86 901 86 869 q 108 956 86 933 m 432 956 q 443 967 432 956 q 486 978 454 978 q 540 956 518 978 q 563 901 563 933 q 540 847 563 869 q 486 825 518 825 q 432 847 454 825 q 410 901 410 869 q 432 956 410 933 m 222 0 l 103 0 l 103 736 l 222 736 l 222 0 m 546 736 l 546 -64 q 542 -153 546 -115 q 369 -292 526 -292 q 313 -289 331 -292 l 313 -192 q 424 -131 415 -201 q 426 -69 426 -111 l 426 736 l 546 736 z "},"Ķ":{"ha":846,"x_min":139,"x_max":872,"o":"m 438 490 l 847 0 l 679 0 l 350 410 l 258 311 l 258 0 l 139 0 l 139 958 l 258 958 l 258 449 l 732 958 l 872 958 l 438 490 m 429 -71 l 525 -71 l 525 -87 l 442 -271 l 357 -271 l 429 -71 z "},"ķ":{"ha":725,"x_min":103,"x_max":722,"o":"m 722 0 l 560 0 l 292 311 l 222 235 l 222 0 l 103 0 l 103 1021 l 222 1021 l 222 365 l 565 736 l 718 736 l 375 389 l 722 0 m 336 -71 l 432 -71 l 432 -87 l 349 -271 l 264 -271 l 336 -71 z "},"Ĺ":{"ha":799,"x_min":139,"x_max":776,"o":"m 231 1022 l 153 1022 l 228 1153 l 339 1153 l 231 1022 m 776 97 l 776 0 l 139 0 l 139 958 l 258 958 l 258 97 l 776 97 z "},"ĺ":{"ha":343,"x_min":97,"x_max":308,"o":"m 188 1090 l 110 1090 l 194 1243 l 306 1243 l 188 1090 m 217 1021 l 217 211 q 218 142 217 165 q 240 93 221 106 q 308 86 260 81 l 308 0 q 224 -6 274 -6 q 133 19 165 -6 q 99 110 101 44 q 97 207 97 135 l 97 1021 l 217 1021 z "},"Ļ":{"ha":799,"x_min":139,"x_max":776,"o":"m 776 97 l 776 0 l 139 0 l 139 958 l 258 958 l 258 97 l 776 97 m 424 -71 l 519 -71 l 519 -87 l 436 -271 l 351 -271 l 424 -71 z "},"ļ":{"ha":343,"x_min":56,"x_max":308,"o":"m 217 1021 l 217 211 q 218 142 217 165 q 240 93 221 106 q 308 86 260 81 l 308 0 q 224 -6 274 -6 q 133 19 165 -6 q 99 110 101 44 q 97 207 97 135 l 97 1021 l 217 1021 m 224 -87 l 140 -271 l 56 -271 l 128 -71 l 224 -71 l 224 -87 z "},"Ľ":{"ha":799,"x_min":139,"x_max":776,"o":"m 776 97 l 776 0 l 139 0 l 139 958 l 258 958 l 258 97 l 776 97 z "},"ľ":{"ha":343,"x_min":97,"x_max":308,"o":"m 217 1021 l 217 211 q 218 142 217 165 q 240 93 221 106 q 308 86 260 81 l 308 0 q 224 -6 274 -6 q 133 19 165 -6 q 99 110 101 44 q 97 207 97 135 l 97 1021 l 217 1021 z "},"Ŀ":{"ha":799,"x_min":139,"x_max":776,"o":"m 776 97 l 776 0 l 139 0 l 139 958 l 258 958 l 258 97 l 776 97 m 599 501 q 588 490 599 501 q 544 479 576 479 q 490 501 513 479 q 468 556 468 524 q 490 610 468 588 q 544 632 513 632 q 599 610 576 632 q 621 556 621 588 q 599 501 621 524 z "},"ŀ":{"ha":486,"x_min":97,"x_max":467,"o":"m 217 1021 l 217 211 q 218 142 217 165 q 240 93 221 106 q 308 86 260 81 l 308 0 q 224 -6 274 -6 q 133 19 165 -6 q 99 110 101 44 q 97 207 97 135 l 97 1021 l 217 1021 m 336 610 q 347 621 336 610 q 390 632 358 632 q 444 610 422 632 q 467 556 467 588 q 444 501 467 524 q 390 479 422 479 q 336 501 358 479 q 314 556 314 524 q 336 610 314 588 z "},"Ł":{"ha":829,"x_min":19,"x_max":807,"o":"m 807 97 l 807 0 l 169 0 l 169 400 l 19 311 l 19 404 l 169 493 l 169 958 l 289 958 l 289 564 l 464 668 l 464 575 l 289 471 l 289 97 l 807 97 z "},"ł":{"ha":394,"x_min":44,"x_max":346,"o":"m 256 142 q 278 93 258 106 q 346 86 297 81 l 346 0 q 261 -6 311 -6 q 171 19 203 -6 q 136 110 139 44 q 135 207 135 135 l 135 367 l 44 313 l 44 406 l 135 460 l 135 1021 l 254 1021 l 254 529 l 344 583 l 344 490 l 254 436 l 254 211 q 256 142 254 165 z "},"Ń":{"ha":997,"x_min":139,"x_max":889,"o":"m 546 1022 l 468 1022 l 543 1153 l 654 1153 l 546 1022 m 889 0 l 706 0 l 254 842 q 258 479 258 672 l 258 0 l 139 0 l 139 958 l 322 958 l 774 117 q 769 479 769 285 l 769 958 l 886 958 l 889 0 z "},"ń":{"ha":824,"x_min":103,"x_max":725,"o":"m 572 958 l 454 806 l 376 806 l 461 958 l 572 958 m 722 540 q 725 414 725 503 l 725 0 l 606 0 l 606 406 q 603 511 606 474 q 435 661 590 661 q 281 581 340 661 q 222 324 222 500 l 222 0 l 103 0 l 103 736 l 222 736 l 222 610 l 268 694 q 460 756 347 756 q 646 697 578 756 q 722 540 714 639 z "},"Ņ":{"ha":997,"x_min":139,"x_max":889,"o":"m 889 0 l 706 0 l 254 842 q 258 479 258 672 l 258 0 l 139 0 l 139 958 l 322 958 l 774 117 q 769 479 769 285 l 769 958 l 886 958 l 889 0 m 575 -87 l 492 -271 l 407 -271 l 479 -71 l 575 -71 l 575 -87 z "},"ņ":{"ha":824,"x_min":103,"x_max":725,"o":"m 722 540 q 725 414 725 503 l 725 0 l 606 0 l 606 406 q 603 511 606 474 q 435 661 590 661 q 281 581 340 661 q 222 324 222 500 l 222 0 l 103 0 l 103 736 l 222 736 l 222 610 l 268 694 q 460 756 347 756 q 646 697 578 756 q 722 540 714 639 m 296 -271 l 368 -71 l 464 -71 l 464 -87 l 381 -271 l 296 -271 z "},"Ň":{"ha":997,"x_min":139,"x_max":889,"o":"m 474 1022 l 381 1153 l 474 1153 l 515 1076 l 557 1153 l 649 1153 l 556 1022 l 474 1022 m 706 0 l 254 842 q 258 479 258 672 l 258 0 l 139 0 l 139 958 l 322 958 l 774 117 q 769 479 769 285 l 769 958 l 886 958 l 889 0 l 706 0 z "},"ň":{"ha":824,"x_min":103,"x_max":725,"o":"m 465 806 l 383 806 l 290 958 l 379 958 l 425 871 l 471 958 l 558 958 l 465 806 m 722 540 q 725 414 725 503 l 725 0 l 606 0 l 606 406 q 603 511 606 474 q 435 661 590 661 q 281 581 340 661 q 222 324 222 500 l 222 0 l 103 0 l 103 736 l 222 736 l 222 610 l 268 694 q 460 756 347 756 q 646 697 578 756 q 722 540 714 639 z "},"Ŋ":{"ha":997,"x_min":139,"x_max":889,"o":"m 889 958 l 889 -93 q 888 -150 889 -131 q 824 -274 879 -237 q 669 -310 768 -310 l 669 -212 q 746 -188 724 -212 q 768 -115 768 -164 l 768 -43 l 254 831 q 258 479 258 663 l 258 0 l 139 0 l 139 958 l 322 958 l 774 172 q 769 507 769 342 l 769 958 l 889 958 z "},"ŋ":{"ha":824,"x_min":103,"x_max":725,"o":"m 722 540 q 725 414 725 503 l 725 -75 q 724 -132 725 -112 q 661 -258 717 -225 q 493 -292 606 -292 l 493 -194 q 576 -179 551 -194 q 604 -121 600 -164 q 606 -83 606 -110 l 606 406 q 603 511 606 474 q 435 661 590 661 q 281 581 340 661 q 222 324 222 500 l 222 0 l 103 0 l 103 736 l 222 736 l 222 610 l 268 694 q 460 756 347 756 q 646 697 578 756 q 722 540 714 639 z "},"Ō":{"ha":1024,"x_min":65,"x_max":971,"o":"m 685 1051 l 351 1051 l 351 1124 l 685 1124 l 685 1051 m 185 841 q 244 909 185 841 q 518 978 304 978 q 851 841 732 978 q 971 479 971 704 q 851 118 971 256 q 518 -19 732 -19 q 185 118 304 -19 q 65 479 65 256 q 185 841 65 704 m 283 183 q 326 129 283 183 q 518 75 368 75 q 753 183 668 75 q 838 479 838 292 q 753 776 838 668 q 518 883 668 883 q 283 776 368 883 q 199 479 199 668 q 283 183 199 292 z "},"ō":{"ha":814,"x_min":42,"x_max":772,"o":"m 574 839 l 240 839 l 240 911 l 574 911 l 574 839 m 135 645 q 182 700 135 645 q 407 756 229 756 q 678 645 585 756 q 772 368 772 535 q 678 91 772 201 q 407 -19 585 -19 q 135 91 229 -19 q 42 368 42 201 q 135 645 42 535 m 235 154 q 266 113 235 154 q 407 72 297 72 q 579 154 517 72 q 642 368 642 236 q 579 583 642 501 q 407 664 517 664 q 235 583 297 664 q 172 368 172 501 q 235 154 172 236 z "},"Ő":{"ha":1024,"x_min":65,"x_max":971,"o":"m 451 1022 l 374 1022 l 449 1153 l 560 1153 l 451 1022 m 525 1022 l 600 1153 l 711 1153 l 603 1022 l 525 1022 m 185 841 q 244 909 185 841 q 518 978 304 978 q 851 841 732 978 q 971 479 971 704 q 851 118 971 256 q 518 -19 732 -19 q 185 118 304 -19 q 65 479 65 256 q 185 841 65 704 m 283 183 q 326 129 283 183 q 518 75 368 75 q 753 183 668 75 q 838 479 838 292 q 753 776 838 668 q 518 883 668 883 q 283 776 368 883 q 199 479 199 668 q 283 183 199 292 z "},"ő":{"ha":814,"x_min":42,"x_max":772,"o":"m 360 806 l 282 806 l 367 958 l 478 958 l 360 806 m 451 806 l 536 958 l 647 958 l 529 806 l 451 806 m 135 645 q 182 700 135 645 q 407 756 229 756 q 678 645 585 756 q 772 368 772 535 q 678 91 772 201 q 407 -19 585 -19 q 135 91 229 -19 q 42 368 42 201 q 135 645 42 535 m 235 154 q 266 113 235 154 q 407 72 297 72 q 579 154 517 72 q 642 368 642 236 q 579 583 642 501 q 407 664 517 664 q 235 583 297 664 q 172 368 172 501 q 235 154 172 236 z "},"Œ":{"ha":1514,"x_min":65,"x_max":1475,"o":"m 1475 97 l 1475 0 l 838 0 l 838 196 l 800 94 q 504 -19 700 -19 q 183 122 301 -19 q 65 479 65 264 q 183 837 65 696 q 504 978 301 978 q 677 951 610 978 q 800 858 744 924 l 838 760 l 838 958 l 1461 958 l 1461 861 l 957 861 l 957 528 l 1419 528 l 1419 431 l 957 431 l 957 97 l 1475 97 m 284 186 q 327 131 284 186 q 518 75 369 75 q 752 186 667 75 q 838 479 838 297 q 752 773 838 663 q 518 883 667 883 q 284 773 369 883 q 199 479 199 663 q 284 186 199 297 z "},"œ":{"ha":1363,"x_min":42,"x_max":1307,"o":"m 1307 389 q 1304 332 1307 358 l 774 332 q 839 137 782 201 q 982 72 896 72 q 1108 116 1056 72 q 1172 238 1160 160 l 1297 238 q 1187 46 1276 111 q 976 -19 1097 -19 q 703 156 785 -19 q 407 -19 617 -19 q 135 91 229 -19 q 42 368 42 201 q 135 645 42 535 q 407 756 229 756 q 708 576 622 756 q 992 756 794 756 q 1224 655 1140 756 q 1307 389 1307 554 m 235 154 q 266 113 235 154 q 407 72 297 72 q 579 154 517 72 q 642 368 642 236 q 579 583 642 501 q 407 664 517 664 q 235 583 297 664 q 172 368 172 501 q 235 154 172 236 m 774 424 l 1186 424 q 989 664 1167 664 q 842 602 899 664 q 774 424 785 540 z "},"Ŕ":{"ha":860,"x_min":139,"x_max":833,"o":"m 479 1022 l 401 1022 l 476 1153 l 588 1153 l 479 1022 m 769 251 q 833 0 786 63 l 701 0 q 650 240 667 79 q 507 411 632 401 q 439 413 485 413 l 258 413 l 258 0 l 139 0 l 139 958 l 453 958 q 578 953 535 958 q 753 876 689 939 q 817 697 817 813 q 768 551 817 608 q 646 471 719 494 q 769 251 754 421 m 258 510 l 442 510 q 535 513 508 510 q 647 564 604 519 q 689 686 689 608 q 549 856 689 833 q 453 861 514 861 l 258 861 l 258 510 z "},"ŕ":{"ha":458,"x_min":103,"x_max":442,"o":"m 286 806 l 208 806 l 293 958 l 404 958 l 286 806 m 392 753 q 442 743 422 753 l 442 653 q 283 600 343 660 q 222 419 222 540 l 222 0 l 103 0 l 103 736 l 222 736 l 222 621 l 289 719 q 392 753 338 753 z "},"Ŗ":{"ha":860,"x_min":139,"x_max":833,"o":"m 769 251 q 833 0 786 63 l 701 0 q 650 240 667 79 q 507 411 632 401 q 439 413 485 413 l 258 413 l 258 0 l 139 0 l 139 958 l 453 958 q 578 953 535 958 q 753 876 689 939 q 817 697 817 813 q 768 551 817 608 q 646 471 719 494 q 769 251 754 421 m 258 510 l 442 510 q 535 513 508 510 q 647 564 604 519 q 689 686 689 608 q 549 856 689 833 q 453 861 514 861 l 258 861 l 258 510 m 406 -71 l 501 -71 l 501 -87 l 418 -271 l 333 -271 l 406 -71 z "},"ŗ":{"ha":458,"x_min":47,"x_max":442,"o":"m 392 753 q 442 743 422 753 l 442 653 q 283 600 343 660 q 222 419 222 540 l 222 0 l 103 0 l 103 736 l 222 736 l 222 621 l 289 719 q 392 753 338 753 m 119 -71 l 215 -71 l 215 -87 l 132 -271 l 47 -271 l 119 -71 z "},"Ř":{"ha":860,"x_min":139,"x_max":833,"o":"m 407 1022 l 314 1153 l 407 1153 l 449 1076 l 490 1153 l 582 1153 l 489 1022 l 407 1022 m 769 251 q 833 0 786 63 l 701 0 q 650 240 667 79 q 507 411 632 401 q 439 413 485 413 l 258 413 l 258 0 l 139 0 l 139 958 l 453 958 q 578 953 535 958 q 753 876 689 939 q 817 697 817 813 q 768 551 817 608 q 646 471 719 494 q 769 251 754 421 m 258 510 l 442 510 q 535 513 508 510 q 647 564 604 519 q 689 686 689 608 q 549 856 689 833 q 453 861 514 861 l 258 861 l 258 510 z "},"ř":{"ha":458,"x_min":103,"x_max":442,"o":"m 215 806 l 122 958 l 211 958 l 257 871 l 303 958 l 390 958 l 297 806 l 215 806 m 392 753 q 442 743 422 753 l 442 653 q 283 600 343 660 q 222 419 222 540 l 222 0 l 103 0 l 103 736 l 222 736 l 222 621 l 289 719 q 392 753 338 753 z "},"Ś":{"ha":813,"x_min":72,"x_max":767,"o":"m 454 1022 l 376 1022 l 451 1153 l 563 1153 l 454 1022 m 436 978 q 661 900 579 978 q 757 693 743 822 l 629 693 q 569 834 621 785 q 426 883 517 883 q 295 846 346 883 q 244 736 244 808 q 291 619 244 660 q 450 554 338 579 q 690 447 613 517 q 767 257 767 376 q 673 57 767 133 q 438 -19 579 -19 q 183 57 279 -19 q 72 272 88 133 l 200 272 q 283 126 221 178 q 440 75 346 75 q 582 118 525 75 q 639 235 639 161 q 585 367 639 321 q 404 443 532 414 q 191 536 265 475 q 117 708 117 597 q 208 903 117 829 q 436 978 300 978 z "},"ś":{"ha":638,"x_min":33,"x_max":596,"o":"m 471 958 l 353 806 l 275 806 l 360 958 l 471 958 m 317 756 q 506 693 438 756 q 588 526 575 631 l 463 526 q 307 664 436 664 q 216 634 247 664 q 185 554 185 604 q 224 475 185 503 q 346 425 263 447 q 535 335 475 390 q 596 189 596 281 q 520 35 596 89 q 322 -19 444 -19 q 126 39 203 -19 q 33 217 50 97 l 158 217 q 331 72 185 72 q 433 100 393 72 q 474 179 474 128 q 434 264 474 232 q 300 321 394 296 q 124 401 186 351 q 63 540 63 451 q 132 698 63 640 q 317 756 201 756 z "},"Ş":{"ha":813,"x_min":72,"x_max":767,"o":"m 767 257 q 678 61 767 136 q 453 -19 589 -14 l 433 -56 q 546 -171 546 -71 q 499 -260 546 -228 q 375 -292 453 -292 q 306 -279 335 -292 l 306 -218 q 379 -233 335 -233 q 465 -172 465 -233 q 332 -108 465 -99 l 382 -17 q 167 72 247 -3 q 72 272 86 146 l 200 272 q 283 126 221 178 q 440 75 346 75 q 582 118 525 75 q 639 235 639 161 q 585 367 639 321 q 404 443 532 414 q 191 536 265 475 q 117 708 117 597 q 208 903 117 829 q 436 978 300 978 q 661 900 579 978 q 757 693 743 822 l 629 693 q 569 834 621 785 q 426 883 517 883 q 295 846 346 883 q 244 736 244 808 q 291 619 244 660 q 450 554 338 579 q 690 447 613 517 q 767 257 767 376 z "},"ş":{"ha":638,"x_min":33,"x_max":596,"o":"m 535 335 q 566 308 535 335 q 596 189 596 281 q 533 44 596 97 q 365 -18 469 -8 l 344 -56 q 457 -171 457 -71 q 410 -260 457 -228 q 286 -292 364 -292 q 217 -279 246 -292 l 217 -218 q 290 -233 246 -233 q 376 -172 376 -233 q 243 -108 376 -99 l 292 -18 q 117 47 185 -11 q 33 217 49 104 l 158 217 q 331 72 185 72 q 433 100 393 72 q 474 179 474 128 q 434 264 474 232 q 300 321 394 296 q 124 401 186 351 q 63 540 63 451 q 132 698 63 640 q 317 756 201 756 q 506 693 438 756 q 588 526 575 631 l 463 526 q 307 664 436 664 q 216 634 247 664 q 185 554 185 604 q 224 475 185 503 q 346 425 263 447 q 535 335 475 390 z "},"Š":{"ha":813,"x_min":72,"x_max":767,"o":"m 382 1022 l 289 1153 l 382 1153 l 424 1076 l 465 1153 l 557 1153 l 464 1022 l 382 1022 m 450 554 q 690 447 613 517 q 767 257 767 376 q 673 57 767 133 q 438 -19 579 -19 q 183 57 279 -19 q 72 272 88 133 l 200 272 q 283 126 221 178 q 440 75 346 75 q 582 118 525 75 q 639 235 639 161 q 585 367 639 321 q 404 443 532 414 q 191 536 265 475 q 117 708 117 597 q 208 903 117 829 q 436 978 300 978 q 661 900 579 978 q 757 693 743 822 l 629 693 q 569 834 621 785 q 426 883 517 883 q 295 846 346 883 q 244 736 244 808 q 291 619 244 660 q 450 554 338 579 z "},"š":{"ha":638,"x_min":33,"x_max":596,"o":"m 364 806 l 282 806 l 189 958 l 278 958 l 324 871 l 369 958 l 457 958 l 364 806 m 346 425 q 535 335 475 390 q 596 189 596 281 q 520 35 596 89 q 322 -19 444 -19 q 126 39 203 -19 q 33 217 50 97 l 158 217 q 331 72 185 72 q 433 100 393 72 q 474 179 474 128 q 434 264 474 232 q 300 321 394 296 q 124 401 186 351 q 63 540 63 451 q 132 698 63 640 q 317 756 201 756 q 506 693 438 756 q 588 526 575 631 l 463 526 q 307 664 436 664 q 216 634 247 664 q 185 554 185 604 q 224 475 185 503 q 346 425 263 447 z "},"Ţ":{"ha":850,"x_min":47,"x_max":850,"o":"m 490 0 l 460 -56 q 572 -171 572 -71 q 526 -260 572 -228 q 401 -292 479 -292 q 332 -279 361 -292 l 332 -218 q 406 -233 361 -233 q 492 -172 492 -233 q 358 -108 492 -99 l 417 0 l 389 0 l 389 861 l 47 861 l 47 958 l 850 958 l 850 861 l 508 861 l 508 0 l 490 0 z "},"ţ":{"ha":435,"x_min":28,"x_max":383,"o":"m 246 639 l 246 215 q 247 158 246 178 q 278 90 251 106 q 375 83 304 75 l 375 -4 q 278 -11 333 -11 l 253 -56 q 365 -171 365 -71 q 319 -260 365 -228 q 194 -292 272 -292 q 125 -279 154 -292 l 125 -218 q 199 -233 154 -233 q 285 -172 285 -233 q 151 -108 285 -99 l 208 -3 q 128 118 136 22 q 126 210 126 138 l 126 639 l 28 639 l 28 731 l 126 731 l 126 901 l 246 901 l 246 731 l 383 731 l 383 639 l 246 639 z "},"Ť":{"ha":850,"x_min":47,"x_max":850,"o":"m 408 1022 l 315 1153 l 408 1153 l 450 1076 l 492 1153 l 583 1153 l 490 1022 l 408 1022 m 850 861 l 508 861 l 508 0 l 389 0 l 389 861 l 47 861 l 47 958 l 850 958 l 850 861 z "},"ť":{"ha":421,"x_min":28,"x_max":468,"o":"m 468 1021 l 468 1004 l 385 821 l 300 821 l 372 1021 l 468 1021 m 246 731 l 383 731 l 383 639 l 246 639 l 246 215 q 247 158 246 178 q 278 90 251 106 q 375 83 304 75 l 375 -4 q 274 -11 332 -11 q 169 19 204 -11 q 128 118 133 50 q 126 210 126 138 l 126 639 l 28 639 l 28 731 l 126 731 l 126 901 l 246 901 l 246 731 z "},"Ŧ":{"ha":850,"x_min":47,"x_max":850,"o":"m 508 861 l 508 501 l 664 501 l 664 424 l 508 424 l 508 0 l 389 0 l 389 424 l 233 424 l 233 501 l 389 501 l 389 861 l 47 861 l 47 958 l 850 958 l 850 861 l 508 861 z "},"ŧ":{"ha":435,"x_min":28,"x_max":383,"o":"m 246 639 l 246 483 l 361 483 l 361 411 l 246 411 l 246 215 q 247 158 246 178 q 278 90 251 106 q 375 83 304 75 l 375 -4 q 274 -11 332 -11 q 169 19 204 -11 q 128 118 133 50 q 126 210 126 138 l 126 411 l 28 411 l 28 483 l 126 483 l 126 639 l 28 639 l 28 731 l 126 731 l 126 901 l 246 901 l 246 731 l 383 731 l 383 639 l 246 639 z "},"Ū":{"ha":947,"x_min":131,"x_max":850,"o":"m 657 1051 l 324 1051 l 324 1124 l 657 1124 l 657 1051 m 850 958 l 850 354 q 847 268 850 296 q 747 60 836 140 q 490 -19 657 -19 q 234 60 324 -19 q 133 268 144 140 q 131 354 131 296 l 131 958 l 250 958 l 250 365 q 253 281 250 306 q 322 131 261 186 q 490 75 383 75 q 658 131 597 75 q 728 281 719 186 q 731 365 731 306 l 731 958 l 850 958 z "},"ū":{"ha":822,"x_min":92,"x_max":714,"o":"m 569 839 l 236 839 l 236 911 l 569 911 l 569 839 m 714 736 l 714 0 l 594 0 l 594 125 l 549 39 q 357 -19 469 -19 q 180 34 247 -19 q 99 168 113 88 q 92 294 92 215 l 92 736 l 211 736 l 211 317 q 217 215 211 265 q 269 113 225 151 q 388 75 314 75 q 538 155 482 75 q 594 413 594 235 l 594 736 l 714 736 z "},"Ů":{"ha":947,"x_min":131,"x_max":850,"o":"m 399 1183 q 417 1199 399 1183 q 490 1214 435 1214 q 581 1183 546 1214 q 617 1104 617 1153 q 581 1025 617 1056 q 490 994 546 994 q 399 1025 435 994 q 364 1104 364 1056 q 399 1183 364 1153 m 531 1147 q 523 1156 531 1147 q 490 1164 515 1164 q 449 1147 465 1164 q 433 1104 433 1131 q 449 1061 433 1078 q 490 1044 465 1044 q 531 1061 515 1044 q 547 1104 547 1078 q 531 1147 547 1131 m 850 958 l 850 354 q 847 268 850 296 q 747 60 836 140 q 490 -19 657 -19 q 234 60 324 -19 q 133 268 144 140 q 131 354 131 296 l 131 958 l 250 958 l 250 365 q 253 281 250 306 q 322 131 261 186 q 490 75 383 75 q 658 131 597 75 q 728 281 719 186 q 731 365 731 306 l 731 958 l 850 958 z "},"ů":{"ha":822,"x_min":92,"x_max":714,"o":"m 494 817 q 476 801 494 817 q 403 785 458 785 q 312 817 347 785 q 276 901 276 850 q 312 985 276 953 q 403 1018 347 1018 q 494 985 458 1018 q 529 901 529 953 q 494 817 529 850 m 444 950 q 436 959 444 950 q 403 968 428 968 q 362 950 378 968 q 346 901 346 932 q 362 853 346 871 q 403 835 378 835 q 444 853 428 835 q 460 901 460 871 q 444 950 460 932 m 714 736 l 714 0 l 594 0 l 594 125 l 549 39 q 357 -19 469 -19 q 180 34 247 -19 q 99 168 113 88 q 92 294 92 215 l 92 736 l 211 736 l 211 317 q 217 215 211 265 q 269 113 225 151 q 388 75 314 75 q 538 155 482 75 q 594 413 594 235 l 594 736 l 714 736 z "},"Ű":{"ha":947,"x_min":131,"x_max":850,"o":"m 424 1022 l 346 1022 l 421 1153 l 532 1153 l 424 1022 m 575 1022 l 497 1022 l 572 1153 l 683 1153 l 575 1022 m 850 958 l 850 354 q 847 268 850 296 q 747 60 836 140 q 490 -19 657 -19 q 234 60 324 -19 q 133 268 144 140 q 131 354 131 296 l 131 958 l 250 958 l 250 365 q 253 281 250 306 q 322 131 261 186 q 490 75 383 75 q 658 131 597 75 q 728 281 719 186 q 731 365 731 306 l 731 958 l 850 958 z "},"ű":{"ha":822,"x_min":92,"x_max":714,"o":"m 356 806 l 278 806 l 363 958 l 474 958 l 356 806 m 447 806 l 532 958 l 643 958 l 525 806 l 447 806 m 714 736 l 714 0 l 594 0 l 594 125 l 549 39 q 357 -19 469 -19 q 180 34 247 -19 q 99 168 113 88 q 92 294 92 215 l 92 736 l 211 736 l 211 317 q 217 215 211 265 q 269 113 225 151 q 388 75 314 75 q 538 155 482 75 q 594 413 594 235 l 594 736 l 714 736 z "},"Ų":{"ha":947,"x_min":131,"x_max":850,"o":"m 850 958 l 850 354 q 847 268 850 296 q 779 92 839 165 q 608 -7 719 19 q 533 -67 563 -24 q 503 -165 503 -110 q 564 -235 503 -235 q 642 -207 606 -235 l 642 -275 q 518 -310 590 -310 q 389 -192 389 -310 q 481 -19 389 -85 q 231 63 318 -17 q 133 268 144 142 q 131 354 131 296 l 131 958 l 250 958 l 250 365 q 253 281 250 306 q 322 131 261 186 q 490 75 383 75 q 658 131 597 75 q 728 281 719 186 q 731 365 731 306 l 731 958 l 850 958 z "},"ų":{"ha":822,"x_min":92,"x_max":714,"o":"m 714 0 l 682 0 q 590 -56 628 -10 q 551 -165 551 -101 q 613 -235 551 -235 q 690 -207 654 -235 l 690 -275 q 567 -310 639 -310 q 438 -192 438 -310 q 483 -63 438 -117 q 594 15 528 -10 l 594 125 l 549 39 q 357 -19 469 -19 q 180 34 247 -19 q 99 168 113 88 q 92 294 92 215 l 92 736 l 211 736 l 211 317 q 217 215 211 265 q 269 113 225 151 q 388 75 314 75 q 538 155 482 75 q 594 413 594 235 l 594 736 l 714 736 l 714 0 z "},"Ŵ":{"ha":1322,"x_min":36,"x_max":1313,"o":"m 635 1022 l 543 1022 l 636 1153 l 718 1153 l 811 1022 l 718 1022 l 676 1099 l 635 1022 m 1313 958 l 1046 0 l 889 0 l 672 826 l 447 0 l 289 0 l 36 958 l 172 958 l 374 107 l 596 944 l 757 944 l 974 106 l 1186 958 l 1313 958 z "},"ŵ":{"ha":1090,"x_min":1,"x_max":1082,"o":"m 499 806 l 411 806 l 504 958 l 586 958 l 679 806 l 590 806 l 544 893 l 499 806 m 1082 736 l 847 0 l 706 0 l 542 619 l 378 0 l 236 0 l 1 736 l 139 736 l 310 114 l 471 736 l 619 736 l 783 118 l 954 736 l 1082 736 z "},"Ŷ":{"ha":807,"x_min":26,"x_max":824,"o":"m 383 1022 l 292 1022 l 385 1153 l 467 1153 l 560 1022 l 467 1022 l 425 1099 l 383 1022 m 485 378 l 485 0 l 365 0 l 365 378 l 26 958 l 164 958 l 431 493 l 689 958 l 824 958 l 485 378 z "},"ŷ":{"ha":713,"x_min":1,"x_max":704,"o":"m 311 806 l 224 806 l 317 958 l 399 958 l 492 806 l 403 806 l 357 893 l 311 806 m 704 736 l 401 -62 q 294 -236 356 -181 q 143 -292 232 -292 q 82 -289 100 -292 l 82 -192 q 125 -193 100 -193 q 219 -164 182 -193 q 285 -64 257 -135 l 294 -37 l 1 736 l 136 736 l 356 89 l 574 736 l 704 736 z "},"Ÿ":{"ha":807,"x_min":26,"x_max":824,"o":"m 373 1042 q 364 1033 373 1042 q 328 1024 354 1024 q 283 1042 301 1024 q 264 1088 264 1061 q 283 1133 264 1114 q 328 1151 301 1151 q 373 1133 354 1151 q 392 1088 392 1114 q 373 1042 392 1061 m 567 1042 q 558 1033 567 1042 q 522 1024 549 1024 q 477 1042 496 1024 q 458 1088 458 1061 q 477 1133 458 1114 q 522 1151 496 1151 q 567 1133 549 1151 q 586 1088 586 1114 q 567 1042 586 1061 m 485 378 l 485 0 l 365 0 l 365 378 l 26 958 l 164 958 l 431 493 l 689 958 l 824 958 l 485 378 z "},"Ź":{"ha":821,"x_min":64,"x_max":790,"o":"m 457 1022 l 379 1022 l 454 1153 l 565 1153 l 457 1022 m 790 97 l 790 0 l 64 0 l 64 92 l 643 861 l 103 861 l 103 958 l 782 958 l 782 863 l 206 97 l 790 97 z "},"ź":{"ha":642,"x_min":28,"x_max":601,"o":"m 350 806 l 272 806 l 357 958 l 468 958 l 350 806 m 601 94 l 601 0 l 28 0 l 28 92 l 456 636 l 58 636 l 58 731 l 594 731 l 594 635 l 169 94 l 601 94 z "},"Ż":{"ha":821,"x_min":64,"x_max":790,"o":"m 470 1042 q 461 1033 470 1042 q 425 1024 451 1024 q 380 1042 399 1024 q 361 1088 361 1061 q 380 1133 361 1114 q 425 1151 399 1151 q 470 1133 451 1151 q 489 1088 489 1114 q 470 1042 489 1061 m 790 97 l 790 0 l 64 0 l 64 92 l 643 861 l 103 861 l 103 958 l 782 958 l 782 863 l 206 97 l 790 97 z "},"ż":{"ha":642,"x_min":28,"x_max":601,"o":"m 374 847 q 363 836 374 847 q 319 825 351 825 q 265 847 288 825 q 243 901 243 869 q 265 956 243 933 q 319 978 288 978 q 374 956 351 978 q 396 901 396 933 q 374 847 396 869 m 601 94 l 601 0 l 28 0 l 28 92 l 456 636 l 58 636 l 58 731 l 594 731 l 594 635 l 169 94 l 601 94 z "},"Ž":{"ha":821,"x_min":64,"x_max":790,"o":"m 385 1022 l 292 1153 l 385 1153 l 426 1076 l 468 1153 l 560 1153 l 467 1022 l 385 1022 m 790 97 l 790 0 l 64 0 l 64 92 l 643 861 l 103 861 l 103 958 l 782 958 l 782 863 l 206 97 l 790 97 z "},"ž":{"ha":642,"x_min":28,"x_max":601,"o":"m 279 806 l 186 958 l 275 958 l 321 871 l 367 958 l 454 958 l 361 806 l 279 806 m 601 94 l 601 0 l 28 0 l 28 92 l 456 636 l 58 636 l 58 731 l 594 731 l 594 635 l 169 94 l 601 94 z "},"Ș":{"ha":813,"x_min":72,"x_max":767,"o":"m 436 978 q 661 900 579 978 q 757 693 743 822 l 629 693 q 569 834 621 785 q 426 883 517 883 q 295 846 346 883 q 244 736 244 808 q 291 619 244 660 q 450 554 338 579 q 690 447 613 517 q 767 257 767 376 q 673 57 767 133 q 438 -19 579 -19 q 183 57 279 -19 q 72 272 88 133 l 200 272 q 283 126 221 178 q 440 75 346 75 q 582 118 525 75 q 639 235 639 161 q 585 367 639 321 q 404 443 532 414 q 191 536 265 475 q 117 708 117 597 q 208 903 117 829 q 436 978 300 978 m 483 -87 l 400 -271 l 315 -271 l 388 -71 l 483 -71 l 483 -87 z "},"ș":{"ha":638,"x_min":33,"x_max":596,"o":"m 317 756 q 506 693 438 756 q 588 526 575 631 l 463 526 q 307 664 436 664 q 216 634 247 664 q 185 554 185 604 q 224 475 185 503 q 346 425 263 447 q 535 335 475 390 q 596 189 596 281 q 520 35 596 89 q 322 -19 444 -19 q 126 39 203 -19 q 33 217 50 97 l 158 217 q 331 72 185 72 q 433 100 393 72 q 474 179 474 128 q 434 264 474 232 q 300 321 394 296 q 124 401 186 351 q 63 540 63 451 q 132 698 63 640 q 317 756 201 756 m 386 -71 l 386 -87 l 303 -271 l 218 -271 l 290 -71 l 386 -71 z "},"Ț":{"ha":850,"x_min":47,"x_max":850,"o":"m 850 958 l 850 861 l 508 861 l 508 0 l 389 0 l 389 861 l 47 861 l 47 958 l 850 958 m 414 -71 l 510 -71 l 510 -87 l 426 -271 l 342 -271 l 414 -71 z "},"ț":{"ha":435,"x_min":28,"x_max":383,"o":"m 246 639 l 246 215 q 247 158 246 178 q 278 90 251 106 q 375 83 304 75 l 375 -4 q 274 -11 332 -11 q 169 19 204 -11 q 128 118 133 50 q 126 210 126 138 l 126 639 l 28 639 l 28 731 l 126 731 l 126 901 l 246 901 l 246 731 l 383 731 l 383 639 l 246 639 m 199 -71 l 294 -71 l 294 -87 l 211 -271 l 126 -271 l 199 -71 z "},"ˆ":{"ha":417,"x_min":75,"x_max":343,"o":"m 254 806 l 208 893 l 163 806 l 75 806 l 168 958 l 250 958 l 343 806 l 254 806 z "},"ˇ":{"ha":417,"x_min":75,"x_max":343,"o":"m 343 958 l 250 806 l 168 806 l 75 958 l 164 958 l 210 871 l 256 958 l 343 958 z "},"˘":{"ha":417,"x_min":67,"x_max":350,"o":"m 276 958 l 350 958 q 208 786 350 786 q 101 828 135 786 q 67 958 67 871 l 140 958 q 208 863 142 863 q 276 958 275 863 z "},"˙":{"ha":417,"x_min":132,"x_max":285,"o":"m 154 956 q 165 967 154 956 q 208 978 176 978 q 263 956 240 978 q 285 901 285 933 q 263 847 285 869 q 208 825 240 825 q 154 847 176 825 q 132 901 132 869 q 154 956 132 933 z "},"˚":{"ha":417,"x_min":82,"x_max":335,"o":"m 117 985 q 135 1002 117 985 q 208 1018 153 1018 q 299 985 264 1018 q 335 901 335 953 q 299 817 335 850 q 208 785 264 785 q 117 817 153 785 q 82 901 82 850 q 117 985 82 953 m 249 950 q 241 959 249 950 q 208 968 233 968 q 167 950 183 968 q 151 901 151 932 q 167 853 151 871 q 208 835 183 835 q 249 853 233 835 q 265 901 265 871 q 249 950 265 932 z "},"˛":{"ha":417,"x_min":51,"x_max":304,"o":"m 208 15 l 296 0 q 203 -56 242 -10 q 165 -165 165 -101 q 226 -235 165 -235 q 304 -207 268 -235 l 304 -275 q 181 -310 253 -310 q 51 -192 51 -310 q 97 -63 51 -117 q 208 15 142 -10 z "},"˜":{"ha":417,"x_min":61,"x_max":356,"o":"m 133 932 q 219 914 165 932 q 281 899 265 899 q 303 926 303 899 l 356 926 q 338 849 356 871 q 283 828 319 828 q 197 846 251 828 q 136 861 151 861 q 114 833 114 861 l 61 833 q 79 910 61 889 q 133 932 97 932 z "},"˝":{"ha":417,"x_min":83,"x_max":449,"o":"m 161 806 l 83 806 l 168 958 l 279 958 l 161 806 m 331 806 l 253 806 l 338 958 l 449 958 l 331 806 z "},"̦":{"ha":0,"x_min":101,"x_max":269,"o":"m 269 -87 l 186 -271 l 101 -271 l 174 -71 l 269 -71 l 269 -87 z "},"Ẁ":{"ha":1322,"x_min":36,"x_max":1313,"o":"m 643 1022 l 535 1153 l 646 1153 l 721 1022 l 643 1022 m 1313 958 l 1046 0 l 889 0 l 672 826 l 447 0 l 289 0 l 36 958 l 172 958 l 374 107 l 596 944 l 757 944 l 974 106 l 1186 958 l 1313 958 z "},"ẁ":{"ha":1090,"x_min":1,"x_max":1082,"o":"m 511 806 l 393 958 l 504 958 l 589 806 l 511 806 m 1082 736 l 847 0 l 706 0 l 542 619 l 378 0 l 236 0 l 1 736 l 139 736 l 310 114 l 471 736 l 619 736 l 783 118 l 954 736 l 1082 736 z "},"Ẃ":{"ha":1322,"x_min":36,"x_max":1313,"o":"m 708 1022 l 631 1022 l 706 1153 l 817 1153 l 708 1022 m 1313 958 l 1046 0 l 889 0 l 672 826 l 447 0 l 289 0 l 36 958 l 172 958 l 374 107 l 596 944 l 757 944 l 974 106 l 1186 958 l 1313 958 z "},"ẃ":{"ha":1090,"x_min":1,"x_max":1082,"o":"m 575 806 l 497 806 l 582 958 l 693 958 l 575 806 m 1082 736 l 847 0 l 706 0 l 542 619 l 378 0 l 236 0 l 1 736 l 139 736 l 310 114 l 471 736 l 619 736 l 783 118 l 954 736 l 1082 736 z "},"Ẅ":{"ha":1322,"x_min":36,"x_max":1313,"o":"m 624 1042 q 615 1033 624 1042 q 579 1024 606 1024 q 534 1042 553 1024 q 515 1088 515 1061 q 534 1133 515 1114 q 579 1151 553 1151 q 624 1133 606 1151 q 643 1088 643 1114 q 624 1042 643 1061 m 819 1042 q 809 1033 819 1042 q 774 1024 800 1024 q 728 1042 747 1024 q 710 1088 710 1061 q 728 1133 710 1114 q 774 1151 747 1151 q 819 1133 800 1151 q 838 1088 838 1114 q 819 1042 838 1061 m 1313 958 l 1046 0 l 889 0 l 672 826 l 447 0 l 289 0 l 36 958 l 172 958 l 374 107 l 596 944 l 757 944 l 974 106 l 1186 958 l 1313 958 z "},"ẅ":{"ha":1090,"x_min":1,"x_max":1082,"o":"m 488 828 q 479 819 488 828 q 443 810 469 810 q 398 828 417 810 q 379 874 379 847 q 398 919 379 900 q 443 938 417 938 q 488 919 469 938 q 507 874 507 900 q 488 828 507 847 m 691 828 q 682 819 691 828 q 646 810 672 810 q 601 828 619 810 q 582 874 582 847 q 601 919 582 900 q 646 938 619 938 q 691 919 672 938 q 710 874 710 900 q 691 828 710 847 m 1082 736 l 847 0 l 706 0 l 542 619 l 378 0 l 236 0 l 1 736 l 139 736 l 310 114 l 471 736 l 619 736 l 783 118 l 954 736 l 1082 736 z "},"Ỳ":{"ha":807,"x_min":26,"x_max":824,"o":"m 392 1022 l 283 1153 l 394 1153 l 469 1022 l 392 1022 m 485 378 l 485 0 l 365 0 l 365 378 l 26 958 l 164 958 l 431 493 l 689 958 l 824 958 l 485 378 z "},"ỳ":{"ha":713,"x_min":1,"x_max":704,"o":"m 324 806 l 206 958 l 317 958 l 401 806 l 324 806 m 704 736 l 401 -62 q 294 -236 356 -181 q 143 -292 232 -292 q 82 -289 100 -292 l 82 -192 q 125 -193 100 -193 q 219 -164 182 -193 q 285 -64 257 -135 l 294 -37 l 1 736 l 136 736 l 356 89 l 574 736 l 704 736 z "},"–":{"ha":694,"x_min":97,"x_max":597,"o":"m 597 367 l 97 367 l 97 444 l 597 444 l 597 367 z "},"—":{"ha":1389,"x_min":97,"x_max":1292,"o":"m 1292 367 l 97 367 l 97 444 l 1292 444 l 1292 367 z "},"‘":{"ha":343,"x_min":75,"x_max":313,"o":"m 75 688 l 206 1021 l 313 1021 l 204 674 l 75 674 l 75 688 z "},"’":{"ha":343,"x_min":31,"x_max":268,"o":"m 268 1007 l 138 674 l 31 674 l 139 1021 l 268 1021 l 268 1007 z "},"‚":{"ha":306,"x_min":-43,"x_max":194,"o":"m 194 125 l 69 -167 l -43 -167 l 65 139 l 194 139 l 194 125 z "},"“":{"ha":579,"x_min":75,"x_max":549,"o":"m 75 688 l 206 1021 l 313 1021 l 204 674 l 75 674 l 75 688 m 311 688 l 442 1021 l 549 1021 l 440 674 l 311 674 l 311 688 z "},"”":{"ha":579,"x_min":31,"x_max":504,"o":"m 268 1007 l 138 674 l 31 674 l 139 1021 l 268 1021 l 268 1007 m 504 1007 l 374 674 l 267 674 l 375 1021 l 504 1021 l 504 1007 z "},"„":{"ha":542,"x_min":-43,"x_max":431,"o":"m 194 125 l 69 -167 l -43 -167 l 65 139 l 194 139 l 194 125 m 431 125 l 306 -167 l 193 -167 l 301 139 l 431 139 l 431 125 z "},"†":{"ha":764,"x_min":78,"x_max":686,"o":"m 686 519 l 436 531 l 453 -222 l 311 -222 l 328 531 l 78 519 l 78 628 l 328 617 l 311 958 l 453 958 l 436 617 l 686 628 l 686 519 z "},"‡":{"ha":764,"x_min":78,"x_max":686,"o":"m 436 531 l 436 206 l 686 217 l 686 108 l 436 119 l 453 -222 l 311 -222 l 328 119 l 78 108 l 78 217 l 328 206 l 328 531 l 78 519 l 78 628 l 328 617 l 311 958 l 453 958 l 436 617 l 686 628 l 686 519 l 436 531 z "},"•":{"ha":506,"x_min":108,"x_max":397,"o":"m 150 526 q 171 547 150 526 q 253 568 192 568 q 356 526 314 568 q 397 424 397 485 q 356 321 397 363 q 253 279 314 279 q 150 321 192 279 q 108 424 108 363 q 150 526 108 485 z "},"…":{"ha":861,"x_min":51,"x_max":785,"o":"m 76 133 q 89 146 76 133 q 140 158 101 158 q 204 133 179 158 q 229 69 229 108 q 204 6 229 31 q 140 -19 179 -19 q 76 6 101 -19 q 51 69 51 31 q 76 133 51 108 m 354 133 q 367 146 354 133 q 418 158 379 158 q 482 133 457 158 q 507 69 507 108 q 482 6 507 31 q 418 -19 457 -19 q 354 6 379 -19 q 329 69 329 31 q 354 133 329 108 m 632 133 q 644 146 632 133 q 696 158 657 158 q 760 133 735 158 q 785 69 785 108 q 760 6 785 31 q 696 -19 735 -19 q 632 6 657 -19 q 607 69 607 31 q 632 133 607 108 z "},"‰":{"ha":1496,"x_min":57,"x_max":1439,"o":"m 413 913 q 440 883 413 913 q 468 751 468 853 q 413 590 468 650 q 263 531 357 531 q 113 590 168 531 q 57 751 57 650 q 113 913 57 853 q 263 972 168 972 q 413 913 357 972 m 886 958 l 264 0 l 143 0 l 765 958 l 886 958 m 174 751 q 198 650 174 686 q 263 614 222 614 q 327 650 303 614 q 351 751 351 686 q 327 853 351 818 q 263 889 303 889 q 198 853 222 889 q 174 751 174 818 m 615 363 q 643 392 615 363 q 765 422 671 422 q 915 363 860 422 q 971 201 971 303 q 915 40 971 100 q 765 -19 860 -19 q 615 40 671 -19 q 560 201 560 100 q 615 363 560 303 m 1083 363 q 1111 392 1083 363 q 1233 422 1139 422 q 1383 363 1328 422 q 1439 201 1439 303 q 1383 40 1439 100 q 1233 -19 1328 -19 q 1083 40 1139 -19 q 1028 201 1028 100 q 1083 363 1028 303 m 701 100 q 713 82 701 100 q 765 64 725 64 q 830 100 806 64 q 854 201 854 136 q 830 303 854 268 q 765 339 806 339 q 701 303 725 339 q 676 201 676 268 q 701 100 676 136 m 1169 100 q 1181 82 1169 100 q 1233 64 1193 64 q 1298 100 1274 64 q 1322 201 1322 136 q 1298 303 1322 268 q 1233 339 1274 339 q 1169 303 1193 339 q 1144 201 1144 268 q 1169 100 1144 136 z "},"‹":{"ha":538,"x_min":167,"x_max":458,"o":"m 458 575 l 268 344 l 458 114 l 357 114 l 167 344 l 357 575 l 458 575 z "},"›":{"ha":538,"x_min":79,"x_max":371,"o":"m 371 344 l 181 114 l 79 114 l 269 344 l 79 575 l 181 575 l 371 344 z "},"⁄":{"ha":326,"x_min":-208,"x_max":535,"o":"m -87 0 l -208 0 l 414 958 l 535 958 l -87 0 z "},"€":{"ha":806,"x_min":42,"x_max":779,"o":"m 646 361 l 274 361 q 546 75 308 75 q 750 131 663 75 l 750 32 q 539 -19 660 -19 q 260 68 360 -19 q 139 361 160 156 l 42 361 l 56 439 l 133 439 l 133 475 q 135 514 133 501 l 67 514 l 81 592 l 140 592 q 275 881 167 785 q 553 978 383 978 q 779 892 706 978 l 721 813 q 550 883 658 883 q 274 592 310 883 l 685 592 l 669 514 l 267 514 l 267 481 q 268 439 267 453 l 658 439 l 646 361 z "},"™":{"ha":749,"x_min":28,"x_max":661,"o":"m 303 917 l 303 860 l 200 860 l 200 633 l 131 633 l 131 860 l 28 860 l 28 917 l 303 917 m 661 915 l 661 633 l 592 633 l 594 831 l 535 639 l 463 639 l 404 829 l 406 633 l 336 633 l 336 915 l 440 915 l 500 700 l 560 915 l 661 915 z "},"∂":{"ha":806,"x_min":61,"x_max":735,"o":"m 363 1053 q 513 1021 447 1053 q 620 937 579 989 q 688 810 661 885 q 724 658 714 736 q 735 489 735 579 q 640 101 735 222 q 379 -19 544 -19 q 153 72 246 -19 q 61 328 61 164 q 149 581 61 478 q 400 683 236 683 q 601 588 540 683 q 357 961 575 961 q 244 944 289 961 q 150 885 199 926 l 97 958 q 363 1053 210 1053 m 390 72 q 607 467 600 72 q 404 592 543 592 q 246 522 300 592 q 192 332 192 453 q 247 139 192 206 q 390 72 303 72 z "},"∅":{"ha":1164,"x_min":50,"x_max":1114,"o":"m 1101 956 l 989 843 q 1114 493 1114 692 q 960 110 1114 268 q 582 -47 806 -47 q 231 85 381 -47 l 119 -26 l 63 31 l 175 143 q 50 493 50 294 q 204 876 50 718 q 582 1033 358 1033 q 933 901 783 1033 l 1044 1013 l 1101 956 m 136 493 q 235 203 136 328 l 874 842 q 582 953 749 953 q 265 818 394 953 q 136 493 136 683 m 582 33 q 899 167 769 33 q 1028 493 1028 301 q 929 783 1028 658 l 290 144 q 582 33 415 33 z "},"∏":{"ha":806,"x_min":43,"x_max":763,"o":"m 763 861 l 678 861 l 678 -153 l 558 -153 l 558 861 l 247 861 l 247 -153 l 128 -153 l 128 861 l 43 861 l 43 958 l 763 958 l 763 861 z "},"∑":{"ha":806,"x_min":65,"x_max":744,"o":"m 744 -56 l 744 -153 l 65 -153 l 65 -58 l 447 418 l 107 864 l 107 958 l 736 958 l 736 861 l 246 861 l 586 417 l 201 -56 l 744 -56 z "},"−":{"ha":806,"x_min":111,"x_max":694,"o":"m 694 404 l 111 404 l 111 482 l 694 482 l 694 404 z "},"√":{"ha":806,"x_min":96,"x_max":763,"o":"m 763 1083 l 465 -222 l 364 -222 l 189 353 l 96 353 l 96 431 l 253 431 l 414 -114 l 676 1083 l 763 1083 z "},"∞":{"ha":1369,"x_min":42,"x_max":1328,"o":"m 990 756 q 1243 646 1158 756 q 1328 368 1328 536 q 1243 90 1328 200 q 990 -19 1158 -19 q 682 204 778 -19 q 558 35 629 89 q 379 -19 486 -19 q 126 90 211 -19 q 42 368 42 200 q 126 646 42 536 q 379 756 211 756 q 688 532 592 756 q 812 701 740 647 q 990 756 883 756 m 379 72 q 528 144 465 72 q 608 368 590 217 q 379 664 553 664 q 231 581 289 664 q 172 368 172 499 q 231 155 172 238 q 379 72 289 72 m 990 72 q 1139 155 1081 72 q 1197 368 1197 238 q 1139 581 1197 499 q 990 664 1081 664 q 842 592 904 664 q 761 368 779 519 q 990 72 817 72 z "},"∫":{"ha":806,"x_min":225,"x_max":579,"o":"m 471 1047 q 579 1017 535 1047 l 558 942 q 475 969 522 969 q 400 924 429 969 q 371 797 371 879 q 384 660 371 733 q 443 422 397 586 q 519 35 519 147 q 467 -154 519 -86 q 333 -222 415 -222 q 225 -192 269 -222 l 246 -117 q 329 -144 282 -144 q 404 -99 375 -144 q 433 28 433 -54 q 420 165 433 92 q 361 403 407 239 q 285 790 285 678 q 337 979 285 911 q 471 1047 389 1047 z "},"≈":{"ha":806,"x_min":92,"x_max":713,"o":"m 258 608 q 328 597 297 608 q 421 551 358 585 q 553 503 511 503 q 651 571 611 503 l 713 525 q 638 444 676 469 q 544 418 599 418 q 476 430 507 418 q 383 475 446 442 q 251 524 293 524 q 153 456 193 524 l 92 507 q 258 608 157 608 m 258 386 q 328 374 297 386 q 421 329 358 363 q 553 281 511 281 q 651 349 611 281 l 713 303 q 638 222 676 247 q 544 196 599 196 q 476 208 507 196 q 383 253 446 219 q 251 301 293 301 q 153 233 193 301 l 92 285 q 258 386 157 386 z "},"≠":{"ha":806,"x_min":111,"x_max":694,"o":"m 508 538 l 390 338 l 694 338 l 694 260 l 346 260 l 275 139 l 183 139 l 254 260 l 111 260 l 111 338 l 299 338 l 417 538 l 111 538 l 111 615 l 461 615 l 532 736 l 624 736 l 553 615 l 694 615 l 694 538 l 508 538 z "},"≤":{"ha":806,"x_min":125,"x_max":708,"o":"m 708 618 l 211 426 l 708 240 l 708 143 l 125 381 l 125 475 l 708 713 l 708 618 m 125 78 l 708 78 l 708 0 l 125 0 l 125 78 z "},"≥":{"ha":806,"x_min":97,"x_max":681,"o":"m 681 475 l 681 381 l 97 143 l 97 238 l 594 429 l 97 615 l 97 713 l 681 475 m 97 78 l 681 78 l 681 0 l 97 0 l 97 78 z "},"◊":{"ha":711,"x_min":78,"x_max":633,"o":"m 633 479 l 401 0 l 310 0 l 78 479 l 310 958 l 401 958 l 633 479 m 542 479 l 356 876 l 169 479 l 356 82 l 542 479 z "},"ﬁ":{"ha":725,"x_min":29,"x_max":617,"o":"m 617 731 l 617 0 l 497 0 l 497 639 l 228 639 l 228 0 l 108 0 l 108 639 l 29 639 l 29 731 l 108 731 l 108 750 q 113 839 108 801 q 413 1047 136 1047 q 497 1040 456 1047 l 497 942 q 301 928 361 953 q 232 836 242 903 q 228 761 228 807 l 228 731 l 617 731 z "},"ﬂ":{"ha":707,"x_min":29,"x_max":672,"o":"m 582 142 q 604 94 585 106 q 672 88 624 82 l 672 0 q 588 -6 638 -6 q 497 19 529 -6 q 463 110 465 44 q 461 207 461 135 l 461 947 q 365 956 419 956 q 218 836 235 956 q 214 761 214 807 l 214 731 l 365 731 l 365 639 l 214 639 l 214 0 l 94 0 l 94 639 l 29 639 l 29 731 l 94 731 l 94 750 q 99 839 94 801 q 371 1047 122 1047 q 581 1021 500 1047 l 581 211 q 582 142 581 165 z "}}}
